<svg width="82" height="82" viewBox="0 0 82 82" fill="none" xmlns="http://www.w3.org/2000/svg">
<path d="M65.411 34.2023C65.3179 34.2504 65.2132 34.2757 65.1078 34.2757C65.0024 34.2757 64.8975 34.2502 64.8044 34.2023C56.8838 30.1119 52.0728 23.7185 50.9841 15.9684C46.5956 13.8256 41.6649 12.6216 36.4525 12.6216C18.137 12.6216 3.28955 27.4692 3.28955 45.7845C3.28955 64.0998 18.1372 78.9474 36.4525 78.9474C54.7678 78.9474 69.6154 64.0998 69.6154 45.7845C69.6154 41.3421 68.7396 37.1048 67.1551 33.2329C66.5915 33.5687 66.0107 33.8926 65.411 34.2023Z" fill="#D8ECFE"/>
<path d="M9.24145 54.9406C9.70606 54.476 10.4593 54.476 10.9239 54.9406L11.4072 55.424C10.4819 52.3733 9.98217 49.1375 9.98217 45.7845C9.98217 28.5986 23.0551 14.4664 39.7991 12.7888C38.6987 12.6786 37.5825 12.6216 36.453 12.6216C18.1375 12.6216 3.29004 27.4692 3.29004 45.7845C3.29004 50.2529 4.17586 54.5137 5.77807 58.404L9.24145 54.9406Z" fill="#C4E2FF"/>
<path d="M51.4402 57.7049C49.6045 59.5405 47.1637 60.5515 44.5681 60.5515C44.4484 60.5515 44.3285 60.5493 44.2085 60.5448L41.8536 60.4578C41.7295 60.4533 41.6058 60.4511 41.4822 60.4511C39.6594 60.4511 37.9113 60.9348 36.3828 61.8395L45.8461 71.3028L60.7281 56.4208L56.7263 52.4189L51.4402 57.7049Z" fill="#FFE5C2"/>
<path d="M44.2027 60.7052L41.8476 60.6181C39.9575 60.5482 38.1061 61.0226 36.502 61.9589L45.7327 71.1897L50.8697 66.0527L45.4832 60.6661C45.0599 60.7057 44.6326 60.7212 44.2027 60.7052Z" fill="#FED2A4"/>
<path d="M49.9971 81.6511L43.4754 75.1294C43.0108 74.6648 43.0108 73.9116 43.4754 73.447L61.9821 54.9403C62.4467 54.4756 63.1999 54.4756 63.6646 54.9403L70.1863 61.462C70.6509 61.9266 70.6509 62.6798 70.1863 63.1444L51.6796 81.6511C51.215 82.1158 50.4618 82.1158 49.9971 81.6511Z" fill="#FE646F"/>
<path d="M50.4038 75.1295C49.9392 74.6649 49.9392 73.9117 50.4038 73.4471L66.2876 57.5633L63.6647 54.9403C63.2001 54.4756 62.4469 54.4756 61.9823 54.9403L43.4754 73.4471C43.0108 73.9117 43.0108 74.6649 43.4754 75.1295L49.9971 81.6513C50.4618 82.1159 51.215 82.1159 51.6796 81.6513L54.3025 79.0282L50.4038 75.1295Z" fill="#FD4755"/>
<path d="M62.8284 41.6758C61.693 40.4619 59.9259 40.2246 58.5434 40.964C58.405 41.038 58.2514 40.89 58.3256 40.7518C59.0492 39.4028 58.8418 37.6863 57.7035 36.5482C56.5656 35.4103 54.8495 35.2027 53.5007 35.9257C53.3643 35.9989 53.2129 35.8475 53.2861 35.7111C54.009 34.3622 53.8015 32.6463 52.6636 31.5083C51.5253 30.37 49.8088 30.1628 48.4598 30.8862C48.3216 30.9604 48.1736 30.8068 48.2476 30.6684C48.9881 29.2838 48.749 27.5132 47.5301 26.378C46.1161 25.061 43.8899 25.1622 42.5234 26.5287L42.211 26.8411L41.9421 26.8836L37.6159 31.2096L37.6454 31.4066L40.2638 34.0249C40.944 34.7051 41.3503 35.6283 41.3244 36.5899C41.2992 37.5202 40.9065 38.379 40.2175 39.01C39.6086 39.5673 38.8088 39.8742 37.9652 39.8742C37.9651 39.8742 37.9651 39.8742 37.9649 39.8742C37.0254 39.8742 36.1039 39.4914 35.4367 38.8244L35.2102 39.0508L36.166 40.0066C36.803 40.6436 37.1998 41.4951 37.2187 42.3957C37.2423 43.5214 36.7266 44.5655 35.7946 45.2415C35.3579 45.5583 34.8451 45.7642 34.3108 45.839C33.2209 45.9915 32.1677 45.6352 31.4094 44.8768L29.7641 43.2315L29.5377 43.458C30.3396 44.2599 30.6909 45.3879 30.4693 46.5428C30.3924 46.9433 30.2396 47.3286 30.0192 47.6719C29.3083 48.7793 28.0959 49.3665 26.8233 49.2545C26.0076 49.1828 25.2507 48.7981 24.6718 48.219L22.7525 46.2996L22.5254 46.5267C23.2305 47.2399 23.5829 48.2065 23.4959 49.2206C23.4418 49.8517 23.2104 50.4611 22.8266 50.9652C22.1652 51.834 21.1695 52.3223 20.1056 52.3223C19.2031 52.3223 18.3544 51.9725 17.7133 51.3386L12.4043 56.6477L26.8786 71.1219L34.4961 63.5044C36.4385 61.5621 39.1019 60.5161 41.8471 60.6175L44.2022 60.7046C46.9473 60.8061 49.6107 59.7601 51.5531 57.8178L62.677 46.6938C64.047 45.3243 64.1514 43.0903 62.8284 41.6758Z" fill="#D88A55"/>
<path d="M40.4427 33.9771C41.0491 34.5834 41.3883 35.3539 41.4663 36.1454L48.6659 28.9458C48.6552 28.0481 48.3091 27.1536 47.6241 26.4686C46.2324 25.0769 43.9759 25.0769 42.5843 26.4686L37.7593 31.2937L40.4427 33.9771Z" fill="#C57A44"/>
<path d="M23.6995 53.9124L28.4262 49.1859C27.1475 49.6838 25.6414 49.4154 24.6113 48.3851L22.6398 46.4136L22.639 46.4144C24.032 47.8226 24.0102 50.0984 22.586 51.4788C21.1931 52.8288 18.978 52.8152 17.6006 51.4529L12.5181 56.5351L26.9924 71.0094L31.5613 66.4406L23.6995 58.579C22.4109 57.2904 22.4109 55.201 23.6995 53.9124Z" fill="#C57A44"/>
<path d="M40.4426 33.9776L32.1837 25.7186C30.7919 24.3269 28.5355 24.3269 27.1439 25.7186C25.7521 27.1104 25.7521 29.3668 27.1439 30.7584C25.7521 29.3667 23.4958 29.3667 22.1041 30.7584C20.7123 32.1502 20.7123 34.4066 22.1041 35.7982C20.7123 34.4065 18.4559 34.4065 17.0641 35.7982C15.6723 37.19 15.6723 39.4464 17.0641 40.838L18.6066 42.3805C17.2148 40.9887 14.9585 40.9887 13.5668 42.3805C12.175 43.7722 12.175 46.0287 13.5668 47.4203L17.5861 51.4395C18.9624 52.8159 21.1883 52.8334 22.5861 51.4788C24.0152 50.0939 24.0331 47.8069 22.626 46.3997L24.6115 48.3852C25.9879 49.7616 28.2137 49.779 29.6115 48.4244C31.0406 47.0396 31.0586 44.7525 29.6514 43.3454L31.2969 44.9907C32.6733 46.3671 34.8991 46.3845 36.297 45.0299C37.726 43.6451 37.744 41.358 36.3368 39.9509L35.3243 38.9384C36.6857 40.2996 38.9067 40.4288 40.3266 39.1288C41.8332 37.7491 41.8722 35.4071 40.4426 33.9776Z" fill="#FFE5C2"/>
<path d="M38.7654 24.1821H32.402C31.3252 24.1821 30.4521 25.0551 30.4521 26.132V26.9415C30.4521 29.3539 32.4078 31.3096 34.8202 31.3096L37.7594 31.2939L42.2116 26.8415C41.8117 25.3136 40.423 24.1821 38.7654 24.1821Z" fill="#FFBD86"/>
<path d="M38.4069 37.4854L30.2269 29.3054C28.9662 28.0447 28.8515 26.0764 29.8751 24.682C28.8939 24.6241 27.8934 24.9682 27.1439 25.7179C25.7522 27.1097 25.7522 29.366 27.1439 30.7577L35.3239 38.9377C36.6852 40.299 38.9063 40.4283 40.3262 39.1283C40.5131 38.9571 40.6752 38.77 40.816 38.5724C39.9369 38.5165 39.07 38.1483 38.4069 37.4854Z" fill="#FED2A4"/>
<path d="M34.7517 43.2555L25.5593 34.063C24.3858 32.8895 24.2059 31.1032 25.0112 29.7369C23.9748 29.6243 22.8987 29.9633 22.1044 30.7577C20.7126 32.1495 20.7126 34.4059 22.1044 35.7975L31.2969 44.99C32.6732 46.3664 34.8992 46.3838 36.2969 45.0292C36.5325 44.801 36.7258 44.5465 36.8845 44.2773C36.1051 44.1926 35.3485 43.8522 34.7517 43.2555Z" fill="#FED2A4"/>
<path d="M27.9871 46.7205L20.4399 39.1733C19.2449 37.9782 19.0791 36.147 19.9364 34.7717C18.9109 34.6705 17.8499 35.0121 17.0643 35.7977C15.6726 37.1895 15.6726 39.4459 17.0643 40.8377L24.6115 48.3849C25.9879 49.7613 28.2138 49.7787 29.6116 48.4241C29.8254 48.217 30.0035 47.9878 30.1542 47.7463C29.3627 47.668 28.5927 47.3261 27.9871 46.7205Z" fill="#FED2A4"/>
<path d="M20.9849 49.7823L16.9656 45.763C15.7694 44.5668 15.6044 42.733 16.4645 41.3574C15.431 41.2479 14.3589 41.5876 13.5668 42.3797C12.175 43.7715 12.175 46.0279 13.5668 47.4195L17.586 51.4388C18.9624 52.8152 21.1883 52.8325 22.5861 51.478C22.7983 51.2724 22.9756 51.0451 23.1255 50.8054C22.3433 50.7221 21.5835 50.3811 20.9849 49.7823Z" fill="#FED2A4"/>
<path d="M29.4304 75.1295L22.9087 81.6513C22.4441 82.1159 21.6909 82.1159 21.2262 81.6513L2.71955 63.1444C2.25494 62.6798 2.25494 61.9266 2.71955 61.462L9.24128 54.9403C9.70589 54.4756 10.4591 54.4756 10.9237 54.9403L29.4304 73.4471C29.895 73.9117 29.895 74.6649 29.4304 75.1295Z" fill="#97D729"/>
<path d="M9.50553 63.1444C9.04092 62.6798 9.04092 61.9266 9.50553 61.462L13.4755 57.492L10.9237 54.9403C10.4591 54.4756 9.70589 54.4756 9.24128 54.9403L2.71955 61.462C2.25494 61.9266 2.25494 62.6798 2.71955 63.1444L21.2262 81.6511C21.6909 82.1158 22.4441 82.1158 22.9087 81.6511L25.4605 79.0994L9.50553 63.1444Z" fill="#8BC727"/>
<path d="M65.108 0C60.8017 0 56.7392 4.29923 53.1529 3.12977C52.7335 2.993 52.2801 3.22715 52.1308 3.64227C51.1329 6.41746 50.5869 9.40806 50.5869 12.5269C50.5869 22.6623 56.3263 30.0043 64.7314 34.3449C64.967 34.4666 65.2492 34.4666 65.4848 34.3449C73.89 30.0043 79.6293 22.6623 79.6293 12.5269C79.6293 9.40806 79.0832 6.41746 78.0854 3.64227C77.9362 3.22715 77.4827 2.993 77.0633 3.12977C73.4768 4.29923 69.4141 0 65.108 0V0Z" fill="#00CC36"/>
<path d="M62.9553 25.0299C58.6059 24.0467 55.3474 20.1538 55.3474 15.5115C55.3474 13.1028 56.2262 10.8968 57.6777 9.19255C57.767 6.67345 58.2124 4.24548 58.9629 1.95557C56.9235 2.90481 54.9765 3.72433 53.1529 3.12967C52.7335 2.9929 52.2801 3.22705 52.1308 3.64217C51.1329 6.41736 50.5869 9.40796 50.5869 12.5268C50.5869 22.6622 56.3263 30.0042 64.7314 34.3448C64.967 34.4665 65.2492 34.4665 65.4848 34.3448C67.2593 33.4284 68.9133 32.3766 70.4213 31.1945C67.5212 29.5201 64.9864 27.4614 62.9553 25.0299Z" fill="#03B761"/>
<path d="M65.1077 24.0704C69.835 24.0704 73.6671 20.2383 73.6671 15.5111C73.6671 10.7838 69.835 6.95166 65.1077 6.95166C60.3805 6.95166 56.5483 10.7838 56.5483 15.5111C56.5483 20.2383 60.3805 24.0704 65.1077 24.0704Z" fill="#00D670"/>
<path d="M62.6135 15.5111C62.6135 11.852 64.9103 8.73084 68.1403 7.50644C67.1975 7.14897 66.1758 6.95166 65.1077 6.95166C60.3806 6.95166 56.5483 10.7839 56.5483 15.5111C56.5483 20.2382 60.3806 24.0704 65.1077 24.0704C66.1758 24.0704 67.1975 23.8731 68.1403 23.5157C64.9103 22.2913 62.6135 19.1701 62.6135 15.5111Z" fill="#00CC36"/>
<path d="M65.1076 25.2716C59.7257 25.2716 55.3472 20.8931 55.3472 15.5111C55.3472 10.129 59.7257 5.75049 65.1076 5.75049C70.4895 5.75049 74.8681 10.129 74.8681 15.5111C74.8681 20.8931 70.4896 25.2716 65.1076 25.2716ZM65.1076 8.15299C61.0503 8.15299 57.7495 11.4538 57.7495 15.5112C57.7495 19.5686 61.0503 22.8694 65.1076 22.8694C69.165 22.8694 72.4658 19.5686 72.4658 15.5112C72.4658 11.4538 69.165 8.15299 65.1076 8.15299Z" fill="#65F3AF"/>
<path d="M64.5287 19.2748C64.2101 19.2748 63.9047 19.1483 63.6792 18.923L60.1404 15.3842C59.6713 14.9151 59.6713 14.1545 60.1404 13.6855C60.6098 13.2164 61.3702 13.2164 61.8392 13.6855L64.5285 16.375L68.3755 12.5281C68.8447 12.059 69.6052 12.059 70.0743 12.5281C70.5434 12.9972 70.5434 13.7578 70.0743 14.2267L65.378 18.923C65.1528 19.1483 64.8472 19.2748 64.5287 19.2748Z" fill="white"/>
</svg>
