<svg width="120" height="24" viewBox="0 0 120 24" fill="none" xmlns="http://www.w3.org/2000/svg">
<path fill-rule="evenodd" clip-rule="evenodd" d="M17 2H14C11.2386 2 9 4.23858 9 7V10H6V14H9V22H13V14H16L17 10H13V7C13 6.44772 13.4477 6 14 6H17V2Z" stroke="white" stroke-width="2" stroke-linecap="round" stroke-linejoin="round"/>
<path fill-rule="evenodd" clip-rule="evenodd" d="M50 7C50 4.23858 52.2386 2 55 2H65C67.7614 2 70 4.23858 70 7V17C70 19.7614 67.7614 22 65 22H55C52.2386 22 50 19.7614 50 17V7Z" stroke="white" stroke-width="2" stroke-linecap="round" stroke-linejoin="round"/>
<path fill-rule="evenodd" clip-rule="evenodd" d="M63.9998 11.3705C64.2529 13.0775 63.3828 14.7543 61.8414 15.5302C60.3 16.306 58.4349 16.0059 57.2147 14.7856C55.9944 13.5654 55.6943 11.7003 56.4701 10.1589C57.246 8.61746 58.9228 7.74736 60.6298 8.00048C62.3728 8.25894 63.7414 9.62751 63.9998 11.3705Z" stroke="white" stroke-width="2" stroke-linecap="round" stroke-linejoin="round"/>
<path fill-rule="evenodd" clip-rule="evenodd" d="M119 2.99952C118.042 3.675 116.982 4.19163 115.86 4.52952C114.626 3.11106 112.638 2.61363 110.882 3.28397C109.126 3.95431 107.975 5.64982 108 7.52952V8.52952C104.431 8.62207 101.052 6.92149 99 3.99952C99 3.99952 95 12.9995 104 16.9995C101.941 18.3975 99.4872 19.0985 97 18.9995C106 23.9995 117 18.9995 117 7.49952C116.999 7.22097 116.972 6.94311 116.92 6.66952C117.941 5.66301 118.661 4.39223 119 2.99952Z" stroke="white" stroke-width="2" stroke-linecap="round" stroke-linejoin="round"/>
</svg>
