<svg width="46" height="46" viewBox="0 0 46 46" fill="none" xmlns="http://www.w3.org/2000/svg">
<circle cx="23" cy="23" r="23" fill="white"/>
<g clip-path="url(#clip0)">
<path d="M16 23C16 24.9299 16.7851 26.6799 18.0526 27.9475C19.3201 29.215 21.0701 30 23 30L23.6667 23L23 16C21.0701 16 19.3201 16.7851 18.0526 18.0526C16.7851 19.3201 16 21.0701 16 23Z" fill="#00E4EF"/>
<path d="M30 23C30 21.0701 29.215 19.3201 27.9475 18.0526C26.6799 16.7851 24.9299 16 23 16V23V30C24.9299 30 26.6799 29.215 27.9475 27.9475C29.215 26.6799 30 24.9299 30 23Z" fill="#5ECBF1"/>
<path d="M14 23C14 25.4813 15.0093 27.7313 16.639 29.361C18.2687 30.9907 20.5187 32 23 32L23.6667 23L23 14C20.5187 14 18.2687 15.0093 16.639 16.639C15.0093 18.2687 14 20.5187 14 23ZM16.0717 24H17.051H18.0303C18.0806 24.8591 18.1955 25.6916 18.3702 26.4755C18.5616 27.3337 18.8248 28.1336 19.1539 28.8458C18.3289 28.3011 17.6254 27.5867 17.0936 26.7527C16.572 25.9345 16.2156 25.0012 16.0717 24ZM18.0303 22H17.0511H16.0718C16.2157 20.9989 16.5721 20.0655 17.0937 19.2473C17.6255 18.4133 18.329 17.6989 19.1541 17.1543C18.8249 17.8665 18.5617 18.6663 18.3703 19.5246C18.1955 20.3084 18.0807 21.141 18.0303 22ZM22 29.5329C21.4479 29.0223 20.9335 28.1173 20.5648 26.9399C20.2978 26.0873 20.1071 25.0919 20.0336 24H21.0168H22V26.7665V29.5329ZM22 22H21.0168H20.0336C20.1071 20.9081 20.2978 19.9127 20.5648 19.0601C20.9335 17.8827 21.4479 16.9777 22 16.4671V19.2335V22Z" fill="#5ECBF1"/>
<path d="M32 23C32 20.5187 30.9907 18.2687 29.361 16.639C27.7313 15.0093 25.4813 14 23 14V23V32C25.4813 32 27.7313 30.9907 29.361 29.361C30.9907 27.7313 32 25.4813 32 23ZM24 29.5329V26.7665V24H24.9832H25.9663C25.8929 25.0919 25.7022 26.0873 25.4351 26.9399C25.0665 28.1173 24.5521 29.0223 24 29.5329ZM24 22V19.2335V16.4671C24.5521 16.9777 25.0665 17.8827 25.4351 19.0601C25.7022 19.9127 25.8929 20.9081 25.9663 22H24.9832H24ZM29.9283 22H28.949H27.9697C27.9193 21.141 27.8045 20.3084 27.6297 19.5245C27.4383 18.6663 27.1751 17.8664 26.8459 17.1542C27.671 17.6989 28.3745 18.4133 28.9063 19.2473C29.428 20.0655 29.7845 20.9989 29.9283 22ZM26.8459 28.8457C27.1751 28.1335 27.4383 27.3337 27.6297 26.4754C27.8045 25.6915 27.9193 24.859 27.9697 23.9999H28.949H29.9283C29.7845 25.0011 29.428 25.9345 28.9063 26.7526C28.3745 27.5867 27.671 28.3011 26.8459 28.8457Z" fill="#6BA7FF"/>
<path d="M25 36.8581L25.9134 37.7166C26.8755 37.5265 27.8171 37.2411 28.7227 36.867C29.8677 36.3941 30.9549 35.7793 31.9528 35.0357C32.9337 34.3048 33.8217 33.4551 34.5956 32.5127C35.3705 31.569 36.0308 30.5323 36.5551 29.4289L35.6517 28.9999L34.7485 28.5708C33.8107 30.5448 32.4189 32.2135 30.7228 33.4662C29.2493 34.5546 27.5462 35.3291 25.7115 35.7171L25 36.8581Z" fill="#E7DFDD"/>
<path d="M9.06574 25.0107L8.2832 25.9132C8.71367 28.0915 9.6324 30.1655 10.9641 31.9527C12.4269 33.9158 14.3657 35.5072 16.5709 36.5549L17.4291 34.7483C13.7401 32.9957 11.1177 29.6579 10.2828 25.7117L9.06574 25.0107Z" fill="#ECEAE7"/>
<path d="M20.9936 9.09854L20.0869 8.2832C17.9084 8.71367 15.8343 9.63247 14.047 10.9642C12.0839 12.427 10.4925 14.3657 9.44482 16.5709L11.2514 17.4291C13.004 13.7401 16.342 11.1176 20.2883 10.2828L20.9936 9.09854Z" fill="#ECEAE7"/>
<path d="M36.8581 21.0003L37.7167 20.087C37.5265 19.125 37.2412 18.1832 36.8671 17.2776C36.3941 16.1326 35.7793 15.0454 35.0357 14.0475C34.3049 13.0666 33.4551 12.1785 32.5127 11.4047C31.5691 10.6298 30.5323 9.96945 29.429 9.44531L28.9999 10.3485L28.5708 11.2518C30.5448 12.1896 32.2135 13.5814 33.4662 15.2774C34.5547 16.7511 35.3291 18.4544 35.7173 20.2891L36.8581 21.0003Z" fill="#E7DFDD"/>
<path d="M20 9C20 9.82707 20.3365 10.5771 20.8797 11.1203C21.4229 11.6635 22.1729 12 23 12L23.6667 9L23 6C22.1729 6 21.4229 6.33647 20.8797 6.87967C20.3365 7.42293 20 8.17293 20 9Z" fill="#A8E62E"/>
<path d="M26 9C26 8.17293 25.6635 7.42293 25.1203 6.87967C24.5771 6.33647 23.8271 6 23 6V9V12C23.8271 12 24.5771 11.6635 25.1203 11.1203C25.6635 10.5771 26 9.82707 26 9Z" fill="#00DA80"/>
<path d="M37 20C36.1729 20 35.4229 20.3365 34.8797 20.8797C34.3365 21.4229 34 22.1729 34 23C34 23.8271 34.3365 24.5771 34.8797 25.1203C35.4229 25.6635 36.1729 26 37 26C37.8271 26 38.5771 25.6635 39.1203 25.1203C39.6635 24.5771 40 23.8271 40 23C40 22.1729 39.6635 21.4229 39.1203 20.8797C38.5771 20.3365 37.8271 20 37 20Z" fill="#FFCB00"/>
<path d="M20 37C20 37.8271 20.3365 38.5771 20.8797 39.1203C21.4229 39.6636 22.1729 40 23 40L23.6667 37L23 34C22.1729 34 21.4229 34.3365 20.8797 34.8797C20.3365 35.4229 20 36.1729 20 37Z" fill="#A8E62E"/>
<path d="M26 37C26 36.1729 25.6635 35.4229 25.1203 34.8797C24.5771 34.3365 23.8271 34 23 34V37V40C23.8271 40 24.5771 39.6636 25.1203 39.1203C25.6635 38.5771 26 37.8271 26 37Z" fill="#00DA80"/>
<path d="M9 26C7.3458 26 6 24.6543 6 23C6 21.3458 7.3458 20 9 20C10.6542 20 12 21.3458 12 23C12 24.6543 10.6542 26 9 26Z" fill="#FFEF4A"/>
</g>
<defs>
<clipPath id="clip0">
<rect width="34" height="34" fill="white" transform="translate(6 6)"/>
</clipPath>
</defs>
</svg>
