<svg width="46" height="46" viewBox="0 0 46 46" fill="none" xmlns="http://www.w3.org/2000/svg">
<circle cx="23" cy="23" r="23" fill="white"/>
<g clip-path="url(#clip0)">
<path d="M13 23.0002L9.35553 22.5557L6 23.0002C6 27.5411 7.76827 31.8101 10.9791 35.021L13.8 32.8668L15.9322 30.0679L13 23.0002Z" fill="#FF5C5C"/>
<path d="M16.2 16.9555L13 23V23.0001H6V23C6 18.4591 7.76827 14.1901 10.9792 10.9792C14.1901 7.76827 18.4591 6 23 6L23.6667 9.8L23 13L16.2 16.9555Z" fill="#A8E62E"/>
<path d="M15.9325 30.0679L13.456 32.5444L10.9795 35.0209H10.9796C12.585 36.6264 14.455 37.8711 16.4912 38.7146C18.5274 39.558 20.7298 40.0001 23.0003 40.0001L23.6669 36.5001L23.0003 33.0001L15.9325 30.0679Z" fill="#00E4EF"/>
<path d="M33 23L36.5 23.6667L40 23C40 20.7295 39.5579 18.5271 38.7145 16.4909C37.8711 14.4547 36.6263 12.5847 35.0209 10.9792C33.4155 9.37373 31.5455 8.129 29.5092 7.28553C27.4729 6.44207 25.2705 6 23 6V9.5V13L29.3111 16.6L33 23Z" fill="#FFEF4A"/>
<path d="M29.2889 29.3333L23 33V36.5V40C25.2705 40 27.4729 39.5579 29.5092 38.7145C31.5455 37.8711 33.4155 36.6263 35.0209 35.0208C36.6263 33.4153 37.8711 31.5454 38.7145 29.5091C39.5579 27.4729 40 25.2705 40 23H36.5H33L29.2889 29.3333Z" fill="#5ECBF1"/>
<path d="M18.293 26.2931L19 27.0001L19.7071 27.7072L21.3536 26.0608L23 24.4143L23.6667 23.0001L23 21.5859L20.6465 23.9395L18.293 26.2931Z" fill="#403B40"/>
<path d="M26.2929 18.293L24.6465 19.9394L23 21.5858V23V24.4143L25.3536 22.0607L27.7071 19.7071L27 19L26.2929 18.293Z" fill="#2E2E2E"/>
<path d="M18.583 20L19.997 18.586L21.411 20L19.997 21.414L18.583 20Z" fill="#403B40"/>
<path d="M24.5859 26.0001L25.2931 26.7072L26.0001 27.4143L26.7072 26.7072L27.4143 26.0001L26.7072 25.2931L26.0001 24.5859L25.2931 25.2931L24.5859 26.0001Z" fill="#2E2E2E"/>
<path d="M23 31C20.7944 31 18.7944 30.1028 17.3457 28.6542C15.8972 27.2056 15 25.2056 15 23C15 20.7944 15.8972 18.7944 17.3457 17.3457C18.7944 15.8972 20.7944 15 23 15L23.6667 14L23 13C20.2429 13 17.7429 14.1215 15.9322 15.9322C14.1215 17.7429 13 20.243 13 23C13 25.757 14.1215 28.257 15.9322 30.0678C17.7429 31.8785 20.2429 33 23 33L23.6667 32L23 31Z" fill="#403B40"/>
<path d="M33 23C33 20.243 31.8785 17.743 30.0677 15.9322C28.2569 14.1215 25.757 13 23 13V14V15C25.2056 15 27.2056 15.8972 28.6541 17.3458C30.1028 18.7944 31 20.7944 31 23C31 25.2056 30.1028 27.2056 28.6541 28.6541C27.2056 30.1028 25.2056 31 23 31V32V33C25.757 33 28.2569 31.8785 30.0677 30.0677C31.8785 28.2569 33 25.7569 33 23Z" fill="#2E2E2E"/>
</g>
<defs>
<clipPath id="clip0">
<rect width="34" height="34" fill="white" transform="translate(6 6)"/>
</clipPath>
</defs>
</svg>
