<svg width="46" height="46" viewBox="0 0 46 46" fill="none" xmlns="http://www.w3.org/2000/svg">
<g clip-path="url(#clip0)">
<path d="M11 6V10L16.0889 10.6667L21 10L21.6667 8L21 6H11Z" fill="#ECEAE7"/>
<path d="M21 6V10L35 36H39V6H21Z" fill="#E7DFDD"/>
<path d="M7 10V25V40H14H21L21.6667 25L21 10H14H7Z" fill="#F4F4F6"/>
<path d="M35 10H28H21V25V40H28H35V25V10Z" fill="#ECEAE7"/>
<path d="M19 30V31V32H20H21L21.6667 31L21 30H20H19Z" fill="#00E4EF"/>
<path d="M31 30H26H21V31V32H26H31V31V30Z" fill="#5ECBF1"/>
<path d="M19 34V35V36H20H21L21.6667 35L21 34H20H19Z" fill="#00E4EF"/>
<path d="M31 34H26H21V35V36H26H31V35V34Z" fill="#5ECBF1"/>
<path d="M13.2001 35.5473L11.0264 33.3735L12.4405 31.9594L13.2001 32.7189L15.5597 30.3594L16.9738 31.7735L13.2001 35.5473Z" fill="#FFEF4A"/>
<path d="M19 22V23V24H20H21L21.6667 23L21 22H20H19Z" fill="#00E4EF"/>
<path d="M23 22H22H21V23V24H22H23V23V22Z" fill="#5ECBF1"/>
<path d="M19 26V27V28H20H21L21.6667 27L21 26H20H19Z" fill="#00E4EF"/>
<path d="M31 26H26H21V27V28H26H31V27V26Z" fill="#5ECBF1"/>
<path d="M19 14V15V16H20H21L21.6667 15L21 14H20H19Z" fill="#00E4EF"/>
<path d="M31 14H26H21V15V16H26H31V15V14Z" fill="#5ECBF1"/>
<path d="M19 18V19V20H20H21L21.6667 19L21 18H20H19Z" fill="#00E4EF"/>
<path d="M23 18H22H21V19V20H22H23V19V18Z" fill="#5ECBF1"/>
<path d="M11 22H17V28H11V22Z" fill="#A8E62E"/>
<path d="M13 24H15V26H13V24Z" fill="#00DA80"/>
<path d="M11 14H17V20H11V14Z" fill="#A8E62E"/>
<path d="M13 16H15V18H13V16Z" fill="#00DA80"/>
<path d="M25 24H28H31V21V18H28H25V21V24Z" fill="#00DA80"/>
<path d="M27 22H28H29V21V20H28H27V21V22Z" fill="#00B9A0"/>
</g>
<defs>
<clipPath id="clip0">
<rect width="34" height="34" fill="white" transform="translate(6 6)"/>
</clipPath>
</defs>
</svg>
