<svg width="46" height="46" viewBox="0 0 46 46" fill="none" xmlns="http://www.w3.org/2000/svg">
<circle cx="23" cy="23" r="23" fill="white"/>
<g clip-path="url(#clip0)">
<path d="M9.89064 34.7949L9.46631 34.0333L10.6456 31.1338L11.8248 28.2344L13.7817 29.2484L14.7956 31.2053L13.431 33.5129L11.1234 34.8775L9.89064 34.7949Z" fill="#ECEAE7"/>
<path d="M11.2056 36.1135L11.9657 36.54L14.865 35.3578L17.7644 34.1754L16.7513 32.2192L14.7953 31.2061L12.9591 33.0421L11.123 34.8782L11.2056 36.1135Z" fill="#E7DFDD"/>
<path d="M9.00033 33.9976C8.1718 33.9976 7.42175 34.3334 6.8788 34.8764C6.33585 35.4194 6 36.1695 6 36.9981V38.4983V39.9986C6 39.9986 6.0018 39.9986 6.00247 39.9986L9.03433 37.9097L11.1233 34.8778C10.8469 34.6011 10.5167 34.378 10.1497 34.2257C9.79571 34.0787 9.40745 33.9976 9.00033 33.9976Z" fill="#FFEF4A"/>
<path d="M10.5825 27.0044L12.6858 29.1079L14.7892 31.2114L16.7609 30.1826L17.7896 28.2109L16.1577 25.636L13.5828 24.0039L12.0827 25.5042L10.5825 27.0044Z" fill="#00E4EF"/>
<path d="M18.998 35.4201L20.4982 33.9198L21.9983 32.4196L20.3656 29.8438L17.79 28.2109L16.2898 29.7112L14.7896 31.2114L16.8938 33.3158L18.998 35.4201Z" fill="#5ECBF1"/>
<path d="M11.1232 34.8774L8.56283 37.4378L6.00244 39.9982H7.50134H9.0003C9.82883 39.9982 10.5789 39.6623 11.1218 39.1193C11.6648 38.5763 12.0006 37.8262 12.0006 36.9976C12.0006 36.5912 11.9198 36.2036 11.7733 35.8501C11.6216 35.4837 11.3992 35.1538 11.1232 34.8774Z" fill="#FFCB00"/>
<path d="M22.2339 11.6359L20.3047 11.2565L18.3756 10.8771C16.9015 10.5872 15.4072 10.6729 14.0159 11.0966C12.6247 11.5203 11.3363 12.282 10.274 13.3445L6.03613 17.5825L10.0463 18.5726L14.0566 19.5627L18.4046 16.2765L22.2339 11.6359Z" fill="#5AA2CA"/>
<path d="M26.4526 31.9444L27.4549 35.9537L28.4571 39.9629L32.6789 35.7408C33.7454 34.6743 34.5086 33.3811 34.9313 31.9849C35.3541 30.5887 35.4362 29.0893 35.1405 27.6104L34.7546 25.6809L34.3687 23.7515L29.5562 27.7729L26.4526 31.9444Z" fill="#5666D6"/>
<path d="M24.7112 33.7073C25.2605 33.1493 26.2322 32.1651 27.1754 31.216C28.3025 30.0818 29.389 28.9977 29.6653 28.7507C30.6841 27.8403 31.9703 26.6279 33.2828 25.0936C34.3042 23.8997 35.3415 22.5108 36.2815 20.9173C37.5279 18.8043 38.4639 16.5639 39.0852 14.213C39.6937 11.9099 40.0001 9.50065 40.0001 7.00113V6.00098L28.8951 17.1061L17.79 28.2111L20.897 31.3184L24.0041 34.4257L24.3576 34.0665L24.7112 33.7073Z" fill="#ECEAE7"/>
<path d="M39 6.00098C36.5257 6.00098 34.1495 6.29335 31.8866 6.87418C29.5509 7.47367 27.3359 8.38041 25.2586 9.58993C23.6877 10.5045 22.3178 11.5214 21.1398 12.5257C19.6308 13.8123 18.4369 15.0784 17.5397 16.0825C17.2923 16.3594 16.1399 17.5069 14.9325 18.6992C13.93 19.6891 12.8897 20.7098 12.298 21.2888L11.9366 21.6424L11.5752 21.996L14.6825 25.1035L17.7899 28.211L29.3665 17.5774L40.0001 6.00098H39Z" fill="#F4F4F6"/>
<path d="M28.999 13.002C27.896 13.002 26.8958 13.4506 26.1715 14.1751C25.4472 14.8995 24.9985 15.8997 24.9985 17.0026C24.9985 17.5445 25.1068 18.0614 25.3028 18.5331C25.5057 19.0214 25.8027 19.4612 26.1711 19.8297L29.4701 17.4737L31.8261 14.1747C31.4576 13.8063 31.0179 13.5093 30.5295 13.3063C30.0577 13.1102 29.5408 13.002 28.999 13.002Z" fill="#595454"/>
<path d="M32.9991 17.0026C32.9991 16.4607 32.8909 15.9435 32.6947 15.4717C32.4916 14.9832 32.1944 14.5433 31.8258 14.1748L28.9984 17.0022L26.1709 19.8297C26.5394 20.1983 26.9792 20.4956 27.4677 20.6987C27.9396 20.8949 28.4567 21.0032 28.9987 21.0032C30.1017 21.0032 31.1018 20.5545 31.8262 19.8301C32.5505 19.1058 32.9991 18.1056 32.9991 17.0026Z" fill="#403B40"/>
<path d="M26.9985 17.0027C26.9985 17.2735 27.0527 17.532 27.1506 17.7679C27.252 18.012 27.4005 18.2318 27.5846 18.4161L29.4699 17.4738L30.4121 15.5886C30.2279 15.4044 30.008 15.256 29.7639 15.1545C29.5281 15.0565 29.2696 15.0024 28.9988 15.0024C28.4473 15.0024 27.9472 15.2267 27.5851 15.589C27.2228 15.9511 26.9985 16.4512 26.9985 17.0027Z" fill="#00E4EF"/>
<path d="M28.9986 19.0034C29.5501 19.0034 30.0501 18.779 30.4123 18.4168C30.7745 18.0546 30.9988 17.5545 30.9988 17.003C30.9988 16.732 30.9446 16.4733 30.8465 16.2374C30.745 15.9931 30.5963 15.7732 30.412 15.5889L28.9982 17.0026L27.5845 18.4164C27.7688 18.6007 27.9887 18.7494 28.233 18.851C28.4689 18.9492 28.7275 19.0034 28.9986 19.0034Z" fill="#5ECBF1"/>
<path d="M19.2905 20.7108L20.7904 22.2108L22.2903 23.7107L23.4689 23.475L23.7046 22.2963L22.2048 20.7963L20.7049 19.2964L19.9978 20.0036L19.2905 20.7108Z" fill="#00CC36"/>
<path d="M25.2915 26.7119L25.9986 26.0047L26.7058 25.2975L25.2054 23.797L23.7049 22.2964L22.9977 23.0036L22.2905 23.7107L23.791 25.2114L25.2915 26.7119Z" fill="#03B761"/>
</g>
<defs>
<clipPath id="clip0">
<rect width="34" height="34" fill="white" transform="translate(6 6)"/>
</clipPath>
</defs>
</svg>
