<svg width="46" height="46" viewBox="0 0 46 46" fill="none" xmlns="http://www.w3.org/2000/svg">
<g clip-path="url(#clip0)">
<path d="M6.99609 6C6.44565 6 6 6.44565 6 6.99609V23C6 23.4026 6.24228 23.7665 6.61478 23.9201C6.98183 24.0734 7.41295 23.9917 7.70036 23.7043L11.4593 20.0117H23L24.9922 18.0195V8.05444L23 6L6.99609 6Z" fill="#5A8EE0"/>
<path d="M39.0039 6H23V10.0508C21.3497 10.0508 20.0117 11.3888 20.0117 13.0391C20.0117 14.6894 21.3497 16.0273 23 16.0273V20.0117H34.5407L38.2996 23.7043C38.5868 23.9914 39.0179 24.0734 39.3852 23.9201C39.7577 23.7665 40 23.4026 40 23V6.99609C40 6.44565 39.5544 6 39.0039 6V6Z" fill="#FFEE00"/>
<path d="M14.0352 31.9648C10.748 31.9648 8.05859 34.7207 8.05859 38.0078V39.0039C8.05859 39.5619 8.49672 40 9.05469 40H19.0156C19.5736 40 20.0117 39.5619 20.0117 39.0039V38.0078C20.0117 34.7207 17.3223 31.9648 14.0352 31.9648Z" fill="#69C0FF"/>
<path d="M31.9648 13.0391C31.9648 13.5892 31.5189 14.0352 30.9688 14.0352C30.4186 14.0352 29.9727 13.5892 29.9727 13.0391C29.9727 12.4889 30.4186 12.043 30.9688 12.043C31.5189 12.043 31.9648 12.4889 31.9648 13.0391Z" fill="#E6C200"/>
<path d="M35.9492 13.0391C35.9492 13.5892 35.5033 14.0352 34.9531 14.0352C34.4029 14.0352 33.957 13.5892 33.957 13.0391C33.957 12.4889 34.4029 12.043 34.9531 12.043C35.5033 12.043 35.9492 12.4889 35.9492 13.0391Z" fill="#E6C200"/>
<path d="M27.9805 13.0391C27.9805 13.5892 27.5346 14.0352 26.9844 14.0352C26.4342 14.0352 25.9883 13.5892 25.9883 13.0391C25.9883 12.4889 26.4342 12.043 26.9844 12.043C27.5346 12.043 27.9805 12.4889 27.9805 13.0391Z" fill="#E6C200"/>
<path d="M20.0117 38.0078V39.0039C20.0117 39.5619 19.5736 40 19.0156 40H14.0352V31.9648C17.3223 31.9648 20.0117 34.7207 20.0117 38.0078Z" fill="#5A8EE0"/>
<path d="M14.0352 23.9961C11.8438 23.9961 10.0508 25.7891 10.0508 27.9805C10.0508 30.1719 11.8438 31.9648 14.0352 31.9648C16.2266 31.9648 18.0195 30.1719 18.0195 27.9805C18.0195 25.7891 16.2266 23.9961 14.0352 23.9961Z" fill="#FFBD86"/>
<path d="M14.0352 31.9648V23.9961C16.2266 23.9961 18.0195 25.7891 18.0195 27.9805C18.0195 30.1719 16.2266 31.9648 14.0352 31.9648Z" fill="#F6A96C"/>
<path d="M31.9648 31.9648C28.6777 31.9648 25.9883 34.7207 25.9883 38.0078V39.0039C25.9883 39.5619 26.4264 40 26.9844 40H36.9453C37.5033 40 37.9414 39.5619 37.9414 39.0039V38.0078C37.9414 34.7207 35.252 31.9648 31.9648 31.9648Z" fill="#00D670"/>
<path d="M37.9414 38.0078V39.0039C37.9414 39.5619 37.5033 40 36.9453 40H31.9648V31.9648C35.252 31.9648 37.9414 34.7207 37.9414 38.0078Z" fill="#00CC36"/>
<path d="M31.9648 23.9961C29.7734 23.9961 27.9805 25.7891 27.9805 27.9805C27.9805 30.1719 29.7734 31.9648 31.9648 31.9648C34.1562 31.9648 35.9492 30.1719 35.9492 27.9805C35.9492 25.7891 34.1562 23.9961 31.9648 23.9961Z" fill="#FFBD86"/>
<path d="M31.9648 31.9648V23.9961C34.1562 23.9961 35.9492 25.7891 35.9492 27.9805C35.9492 30.1719 34.1562 31.9648 31.9648 31.9648Z" fill="#F6A96C"/>
</g>
<defs>
<clipPath id="clip0">
<rect width="34" height="34" fill="white" transform="translate(6 6)"/>
</clipPath>
</defs>
</svg>
