<svg width="46" height="46" viewBox="0 0 46 46" fill="none" xmlns="http://www.w3.org/2000/svg">
<g clip-path="url(#clip0)">
<path d="M15.6667 14L15.0624 13H6V15H15.0624L15.6667 14Z" fill="#595454"/>
<path d="M30.3335 14L30.9378 15H35.469H40.0002V14V13H35.469H30.9378L30.3335 14Z" fill="#403B40"/>
<path d="M22.4993 21.3335L22.0002 21.9378V23.1356V23.9193L20.6467 25.2728L19.6138 26.3058L19.6891 27.5557L20.8601 27.8878L21.3538 27.3942L23.0002 25.7477L23.6669 23.586L23.0002 22.0002L22.4993 21.3335Z" fill="#595454"/>
<path d="M23.5009 21.3179L24 21.9377V23.1356V23.9193L25.3535 25.2728L26.3865 26.3057L26.1889 27.4557L25.1402 27.8878L24.6465 27.3941L23 25.7477V24.3335V23.1668V22.9193V22.0001L23.5009 21.3179Z" fill="#403B40"/>
<path d="M23 16L23.6667 10.7167L23 6C20.7944 6 18.7944 6.8972 17.3458 8.3458C15.8972 9.7944 15 11.7944 15 14C15 16.2056 15.8972 18.2056 17.3458 19.6543C17.838 20.1465 18.3939 20.575 18.9999 20.9263L23 16Z" fill="#F4F4F6"/>
<path d="M27 20.9263C27.606 20.575 28.1619 20.1464 28.6541 19.6542C30.1028 18.2056 31 16.2056 31 14C31 11.7944 30.1028 9.7944 28.6542 8.3458C27.2056 6.8972 25.2056 6 23 6V10.7167V12V15.9979L27 20.9263Z" fill="#ECEAE7"/>
<path d="M21 14C21 14.5523 21.2239 15.0523 21.5858 15.4142C21.9477 15.7762 22.4477 16 23 16L23.6667 14L23 12C22.4477 12 21.9477 12.2238 21.5858 12.5858C21.2239 12.9477 21 13.4477 21 14Z" fill="#FFCCBD"/>
<path d="M25 14C25 13.4477 24.7761 12.9477 24.4142 12.5858C24.0523 12.2238 23.5523 12 23 12V14V16C23.5523 16 24.0523 15.7762 24.4142 15.4142C24.7761 15.0523 25 14.5523 25 14Z" fill="#FFBDA9"/>
<path d="M23 16C21.8955 16 20.8955 16.4477 20.1716 17.1715C19.4477 17.8955 19 18.8955 19 20V20.463V20.9261C19.5985 21.273 20.2457 21.5447 20.9288 21.728C21.5896 21.9054 22.2839 22 23 22L23.6667 19L23 16Z" fill="#FF5C5C"/>
<path d="M27 20C27 18.8955 26.5523 17.8955 25.8285 17.1715C25.1045 16.4477 24.1045 16 23 16V19V22C23.7161 22 24.4104 21.9054 25.0712 21.7281C25.7543 21.5447 26.4015 21.2731 27 20.9261V20.4631V20Z" fill="#FF405C"/>
<path d="M14 34L14.6667 28.7167L14 24C11.7944 24 9.7944 24.8972 8.3458 26.3457C6.8972 27.7944 6 29.7944 6 32C6 34.2056 6.8972 36.2056 8.3458 37.6543C8.838 38.1465 9.39387 38.575 9.99987 38.9263L14 34Z" fill="#F4F4F6"/>
<path d="M18.0001 38.9264C18.6061 38.575 19.162 38.1465 19.6542 37.6543C21.1028 36.2056 22 34.2056 22 32C22 29.7944 21.1028 27.7944 19.6542 26.3457C18.2056 24.8972 16.2056 24 14 24V28.7167V30V33.9979L18.0001 38.9264Z" fill="#ECEAE7"/>
<path d="M12 32C12 32.5523 12.2239 33.0523 12.5858 33.4142C12.9477 33.7762 13.4477 34 14 34L14.6667 32L14 30C13.4477 30 12.9477 30.2238 12.5858 30.5858C12.2239 30.9477 12 31.4477 12 32Z" fill="#FFCCBD"/>
<path d="M16 32C16 31.4477 15.7761 30.9477 15.4142 30.5858C15.0523 30.2238 14.5523 30 14 30V32V34C14.5523 34 15.0523 33.7762 15.4142 33.4142C15.7761 33.0523 16 32.5523 16 32Z" fill="#FFBDA9"/>
<path d="M14 34C12.8955 34 11.8955 34.4477 11.1716 35.1715C10.4477 35.8955 10 36.8955 10 38V38.463V38.9261C10.5985 39.273 11.2457 39.5447 11.9288 39.728C12.5896 39.9054 13.2839 40 14 40L14.6667 37L14 34Z" fill="#FFEF4A"/>
<path d="M18 38C18 36.8955 17.5523 35.8955 16.8285 35.1715C16.1045 34.4477 15.1045 34 14 34V37V40C14.7161 40 15.4104 39.9054 16.0712 39.7281C16.7543 39.5447 17.4015 39.2731 18 38.9261V38.4631V38Z" fill="#FFCB00"/>
<path d="M32 34L32.6667 28.7167L32 24C29.7944 24 27.7944 24.8972 26.3458 26.3457C24.8972 27.7944 24 29.7944 24 32C24 34.2056 24.8972 36.2056 26.3458 37.6543C26.838 38.1465 27.3939 38.575 27.9999 38.9263L32 34Z" fill="#F4F4F6"/>
<path d="M36 38.9264C36.606 38.575 37.1619 38.1465 37.6541 37.6543C39.1028 36.2056 40 34.2056 40 32C40 29.7944 39.1028 27.7944 37.6542 26.3457C36.2056 24.8972 34.2056 24 32 24V28.7167V30V33.9979L36 38.9264Z" fill="#ECEAE7"/>
<path d="M30 32C30 32.5523 30.2239 33.0523 30.5858 33.4142C30.9477 33.7762 31.4477 34 32 34L32.6667 32L32 30C31.4477 30 30.9477 30.2238 30.5858 30.5858C30.2239 30.9477 30 31.4477 30 32Z" fill="#FFCCBD"/>
<path d="M34 32C34 31.4477 33.7761 30.9477 33.4142 30.5858C33.0523 30.2238 32.5523 30 32 30V32V34C32.5523 34 33.0523 33.7762 33.4142 33.4142C33.7761 33.0523 34 32.5523 34 32Z" fill="#FFBDA9"/>
<path d="M32 34C30.8955 34 29.8955 34.4477 29.1716 35.1715C28.4477 35.8955 28 36.8955 28 38V38.463V38.9261C28.5985 39.273 29.2457 39.5447 29.9288 39.728C30.5896 39.9054 31.2839 40 32 40L32.6667 37L32 34Z" fill="#A8E62E"/>
<path d="M36 38C36 36.8955 35.5523 35.8955 34.8284 35.1715C34.1045 34.4477 33.1045 34 32 34V37V40C32.7161 40 33.4104 39.9054 34.0712 39.7281C34.7543 39.5447 35.4015 39.2731 36 38.9261V38.4631V38Z" fill="#00DA80"/>
</g>
<defs>
<clipPath id="clip0">
<rect width="34" height="34" fill="white" transform="translate(6 6)"/>
</clipPath>
</defs>
</svg>
