<svg width="152" height="33" viewBox="0 0 152 33" fill="none" xmlns="http://www.w3.org/2000/svg">
<path fill-rule="evenodd" clip-rule="evenodd" d="M81.2631 23.1369C79.6112 24.8122 77.635 25.6544 75.3448 25.6544C73.4926 25.6544 71.9188 25.277 70.3124 24.3442V20.5036C71.6048 21.3796 73.2283 22.2136 74.8292 22.2136C78.17 22.2136 80.1584 19.9157 80.1584 16.6593C80.1584 13.4003 78.1019 11.0343 74.7597 11.0343C73.2671 11.0343 72.0572 11.5708 71.1122 12.6456C70.0991 13.8101 69.5753 15.4746 69.5753 17.6751V32.8406H69.3236C67.4823 32.8406 65.9905 31.3493 65.9905 29.5094V17.1061C65.9905 11.8426 69.21 7.59309 74.7435 7.59309C77.4757 7.59309 79.6947 8.52677 81.3772 10.4027C82.9592 12.1555 83.7432 14.3763 83.7432 17.0489C83.7432 19.427 82.9159 21.4607 81.2631 23.1369ZM120.077 23.0084C118.431 24.7739 116.314 25.6544 113.747 25.6544C111.036 25.6544 108.828 24.7207 107.148 22.8448C105.567 21.0703 104.782 18.8477 104.782 16.199C104.782 11.5108 108.403 7.59309 113.167 7.59309C115.005 7.59309 116.6 7.98081 118.212 8.86444V12.7443C116.92 11.8683 115.297 11.0343 113.696 11.0343C110.355 11.0343 108.366 13.3317 108.366 16.5895C108.366 19.8026 110.471 22.2136 113.764 22.2136C115.256 22.2136 116.484 21.655 117.466 20.5298C118.442 19.4117 118.95 17.7688 118.95 15.562V3.49096C118.95 1.65066 120.443 0.159758 122.283 0.159758H122.535V16.1283C122.535 18.9406 121.721 21.2425 120.077 23.0084ZM130.2 5.88849C129.823 6.30957 129.284 6.50343 128.626 6.50343C127.396 6.50343 126.515 5.59635 126.515 4.37595C126.515 3.12669 127.379 2.28363 128.626 2.28363C129.826 2.28363 130.737 3.17268 130.737 4.37595C130.737 4.97105 130.563 5.48139 130.2 5.88849ZM148.414 15.562C148.414 14.1496 147.88 13.0315 146.806 12.1844C145.838 11.422 144.63 11.0343 143.159 11.0343C139.914 11.0343 137.831 13.5693 137.831 16.695C137.831 19.7034 140.039 22.2136 143.125 22.2136C145.271 22.2136 146.419 20.9607 147.642 19.4V23.9002C147.019 24.3672 146.302 24.8762 145.57 25.1751C144.797 25.4975 143.874 25.6544 142.809 25.6544C137.649 25.6544 134.246 21.3832 134.246 16.4475C134.246 13.9129 135.034 11.8174 136.62 10.1836C138.303 8.45193 140.51 7.59309 143.212 7.59309C148.335 7.59309 152 10.533 152 15.8451V25.3005H151.749C149.907 25.3005 148.414 23.8091 148.414 21.9688V15.562ZM99.341 14.5472C98.8881 13.1469 98.3202 12.458 97.0138 11.729C93.9072 9.99423 90.8497 11.4712 89.4274 14.5337L99.341 14.5472ZM96.6056 25.6016C94.3159 26.0881 92.069 25.713 89.8771 24.4885C87.7385 23.2952 86.3067 21.5202 85.5891 19.175C84.1379 14.4318 87.1106 9.14621 91.8917 7.8663C94.2617 7.23198 96.5339 7.51916 98.6928 8.72469C102.279 10.7282 103.585 13.8268 103.357 17.8193L88.9145 17.7905C89.1274 19.4189 90.1374 20.693 91.5574 21.4855C92.9969 22.2894 94.3204 22.4814 95.5478 22.1009C96.9114 21.6731 98.0175 20.5609 98.917 19.5257L101.86 21.669C100.66 23.8159 99.0257 25.0868 96.6056 25.6016V25.6016ZM126.834 7.94745H130.418V25.3005H130.166C128.327 25.3005 126.834 23.8091 126.834 21.9688V7.94745ZM5.24619 25.3004C1.73986 25.3004 0 22.9168 0 19.5883V6.96003C0 5.12018 1.49266 3.62883 3.33356 3.62883H3.58527V7.94736H9.64207V11.3886H3.58527V19.9869C3.58527 21.4489 4.238 21.8596 5.63593 21.8596H9.64207V25.3004H5.24619ZM26.0654 23.1071C24.2944 24.804 22.1657 25.6543 19.6928 25.6543C17.2429 25.6543 15.1264 24.8031 13.3554 23.1071C11.5786 21.4038 10.6927 19.2362 10.6927 16.6241C10.6927 11.5279 14.5865 7.59345 19.6928 7.59345C22.1436 7.59345 24.266 8.45094 26.0478 10.1596C27.8359 11.8732 28.7291 14.0345 28.7291 16.6241C28.7291 19.2362 27.8422 21.4038 26.0654 23.1071ZM42.8257 12.123C42.2997 13.0044 41.8919 13.6364 41.605 14.0183C41.2888 14.4335 40.9766 14.7653 40.6672 14.9948C43.1586 15.7991 44.0865 17.524 44.0865 20.0937V25.3004H43.8347C41.9938 25.3004 40.5012 23.809 40.5012 21.9687V20.4472C40.5012 18.7831 39.7546 17.6542 37.9904 17.6542H34.7349V25.3004H34.4832C32.6423 25.3004 31.151 23.809 31.151 21.9687V3.49087C31.151 1.65057 32.6423 0.159668 34.4832 0.159668H34.7349V14.1779H35.7945C36.9588 14.1779 37.7238 13.7798 38.1632 13.0269L41.1742 7.94826L45.2588 7.9442L42.8257 12.123ZM61.3307 23.1071C59.5593 24.804 57.4306 25.6543 54.9577 25.6543C52.5083 25.6543 50.3918 24.8031 48.6204 23.1071C46.8435 21.4038 45.9576 19.2362 45.9576 16.6241C45.9576 11.5279 49.8514 7.59345 54.9577 7.59345C57.409 7.59345 59.5309 8.45094 61.3132 10.1596C63.1013 11.8732 63.994 14.0345 63.994 16.6241C63.994 19.2362 63.1076 21.4038 61.3307 23.1071ZM58.7433 12.5855C57.755 11.5527 56.5005 11.0342 54.9577 11.0342C51.6589 11.0342 49.684 13.4381 49.684 16.6241C49.684 19.7659 51.7058 22.2135 54.9577 22.2135C58.211 22.2135 60.2319 19.7659 60.2319 16.6241C60.2319 14.956 59.7303 13.6175 58.7433 12.5855ZM23.4779 12.5855C22.49 11.5527 21.2351 11.0342 19.6928 11.0342C16.394 11.0342 14.4191 13.4381 14.4191 16.6241C14.4191 19.7659 16.4409 22.2135 19.6928 22.2135C22.9456 22.2135 24.9665 19.7659 24.9665 16.6241C24.9665 14.956 24.4654 13.6175 23.4779 12.5855Z" fill="#42B549"/>
</svg>
