<svg width="82" height="82" viewBox="0 0 82 82" fill="none" xmlns="http://www.w3.org/2000/svg">
<g clip-path="url(#clip0)">
<path d="M59.5351 41.7136H55.7666C55.2935 41.7136 54.8803 41.4043 54.735 40.9541C54.4951 40.2113 54.1961 39.495 53.8444 38.8103C53.6277 38.3886 53.7007 37.8767 54.036 37.5415L56.7026 34.8749C57.125 34.4524 57.125 33.7674 56.7026 33.345L53.0435 29.6859C52.621 29.2634 51.936 29.2634 51.5135 29.6859L48.8469 32.3525C48.5117 32.6877 47.9998 32.7605 47.5781 32.544C46.8935 32.1923 46.1773 31.8933 45.4344 31.6534C44.9842 31.508 44.675 31.0949 44.675 30.6218V26.8533C44.675 26.2558 44.1907 25.7715 43.5931 25.7715H38.939C38.9915 26.3054 39.0189 26.8465 39.0189 27.394C39.0189 36.4678 31.6368 43.8499 22.5629 43.8499C22.1698 43.8499 21.7803 43.8352 21.394 43.808V47.9704C21.394 48.568 21.8784 49.0523 22.4759 49.0523H26.2445C26.7176 49.0523 27.1307 49.3615 27.2761 49.8117C27.516 50.5546 27.8149 51.2708 28.1667 51.9554C28.3834 52.3771 28.3104 52.889 27.9752 53.2242L25.3086 55.8908C24.8861 56.3133 24.8861 56.9983 25.3086 57.4208L28.9677 61.0799C29.3902 61.5024 30.0752 61.5024 30.4976 61.0799L33.1642 58.4133C33.4994 58.0781 34.0113 58.0052 34.433 58.2217C35.1177 58.5734 35.8339 58.8724 36.5767 59.1123C37.0269 59.2578 37.3362 59.6708 37.3362 60.1439V63.9125C37.3362 64.5101 37.8205 64.9944 38.418 64.9944H43.5928C44.1904 64.9944 44.6747 64.5101 44.6747 63.9125V60.1439C44.6747 59.6708 44.9839 59.2576 45.4341 59.1123C46.1769 58.8724 46.8932 58.5736 47.5778 58.2217C47.9995 58.005 48.5112 58.0781 48.8466 58.4133L51.5132 61.0799C51.9357 61.5024 52.6207 61.5024 53.0431 61.0799L56.7022 57.4208C57.1247 56.9983 57.1247 56.3133 56.7022 55.8908L54.0356 53.2242C53.7004 52.889 53.6274 52.3771 53.8441 51.9554C54.1958 51.2708 54.4948 50.5546 54.7347 49.8117C54.8801 49.3615 55.2932 49.0523 55.7663 49.0523H59.5349C60.1325 49.0523 60.6168 48.568 60.6168 47.9704V42.7958C60.6169 42.1981 60.1326 41.7136 59.5351 41.7136Z" fill="#BAAFB9"/>
<path d="M30.5838 45.3831C30.5838 44.1134 30.7356 42.8791 31.022 41.6973C28.5441 43.1659 25.6523 44.0101 22.5629 44.0101C22.1698 44.0101 21.7803 43.9955 21.394 43.9686V47.9704C21.394 48.568 21.8784 49.0523 22.4759 49.0523H26.2445C26.7176 49.0523 27.1307 49.3615 27.2761 49.8117C27.516 50.5545 27.8149 51.2708 28.1667 51.9554C28.3834 52.3771 28.3104 52.889 27.9752 53.2242L25.3086 55.8908C24.8861 56.3133 24.8861 56.9983 25.3086 57.4208L28.9677 61.0799C29.3902 61.5023 30.0752 61.5023 30.4977 61.0799L33.1643 58.4132C33.4995 58.078 34.0113 58.0052 34.433 58.2217C35.1177 58.5734 35.8339 58.8724 36.5769 59.1123C37.0271 59.2578 37.3363 59.6708 37.3363 60.1439V63.9125C37.3363 64.5101 37.8206 64.9944 38.4182 64.9944H43.5928C44.1904 64.9944 44.6747 64.5101 44.6747 63.9125V60.9122C36.7671 60.1521 30.5838 53.4901 30.5838 45.3831Z" fill="#AA9EA9"/>
<path d="M41.0052 54.3196C45.9407 54.3196 49.9416 50.3186 49.9416 45.3832C49.9416 40.4477 45.9407 36.4468 41.0052 36.4468C36.0698 36.4468 32.0688 40.4477 32.0688 45.3832C32.0688 50.3186 36.0698 54.3196 41.0052 54.3196Z" fill="#E5E1E5"/>
<path d="M41.0052 35.2456C39.3215 35.2456 37.7337 35.6606 36.3349 36.3901C35.1631 38.1781 33.653 39.7249 31.896 40.9393C31.2383 42.2821 30.8677 43.7899 30.8677 45.3833C30.8677 50.9733 35.4155 55.5209 41.0052 55.5209C46.595 55.5209 51.1428 50.9731 51.1428 45.3833C51.1428 39.7932 46.595 35.2456 41.0052 35.2456ZM41.0052 53.1184C36.7401 53.1184 33.27 49.6483 33.27 45.3832C33.27 41.1181 36.7401 37.6479 41.0052 37.6479C45.2704 37.6479 48.7405 41.1181 48.7405 45.3832C48.7405 49.6485 45.2704 53.1184 41.0052 53.1184Z" fill="#9B8E99"/>
<path d="M41.0054 49.7871C43.4378 49.7871 45.4097 47.8153 45.4097 45.3828C45.4097 42.9504 43.4378 40.9785 41.0054 40.9785C38.5729 40.9785 36.6011 42.9504 36.6011 45.3828C36.6011 47.8153 38.5729 49.7871 41.0054 49.7871Z" fill="#BAAFB9"/>
<path d="M40.3241 45.3828C40.3241 43.6158 41.3651 42.0927 42.8669 41.3911C42.3014 41.1268 41.6708 40.9785 41.0054 40.9785C38.5729 40.9785 36.6011 42.9504 36.6011 45.3828C36.6011 47.8153 38.5729 49.7871 41.0054 49.7871C41.6708 49.7871 42.3012 49.6387 42.8669 49.3746C41.3651 48.6729 40.3241 47.1498 40.3241 45.3828Z" fill="#AA9EA9"/>
<path d="M19.3125 5.45361V11.2615C20.3636 11.0501 21.4506 10.9385 22.563 10.9385C23.6756 10.9385 24.7625 11.0501 25.8136 11.2615V5.45361H19.3125Z" fill="#BAAFB9"/>
<path d="M19.3125 5.45361V11.2615C20.3636 11.0501 21.4506 10.9385 22.563 10.9385C22.6042 10.9385 22.6452 10.9398 22.6864 10.9401V5.45361H19.3125Z" fill="#AA9EA9"/>
<path d="M9.21889 17.7758C10.4989 16.005 12.1217 14.4977 13.9899 13.3529L11.4322 10.7952C10.7879 10.1509 9.74324 10.1509 9.09893 10.7952L6.83528 13.0589C6.19097 13.7032 6.19097 14.7479 6.83528 15.3922L9.21889 17.7758Z" fill="#00CC36"/>
<path d="M9.21889 17.7757C9.94343 16.7735 10.7778 15.8558 11.7045 15.0403L8.59156 11.9273C8.48313 11.8189 8.39472 11.6986 8.32265 11.5713L6.83528 13.0587C6.19097 13.703 6.19097 14.7477 6.83528 15.392L9.21889 17.7757Z" fill="#03B761"/>
<path d="M29.4656 0.897195V4.71628C29.4656 5.2118 29.064 5.61348 28.5684 5.61348H16.5574C16.0618 5.61348 15.6602 5.2118 15.6602 4.71628V0.897195C15.6602 0.401672 16.0618 0 16.5574 0H28.5684C29.064 0 29.4656 0.401672 29.4656 0.897195Z" fill="#40B7EA"/>
<path d="M20.8713 4.71628V0.897195C20.8713 0.401672 21.273 0 21.7685 0H16.5574C16.0618 0 15.6602 0.401672 15.6602 0.897195V4.71628C15.6602 5.2118 16.0618 5.61348 16.5574 5.61348H21.7685C21.273 5.61348 20.8713 5.2118 20.8713 4.71628Z" fill="#0989D0"/>
<path d="M22.5628 44.0104C31.7396 44.0104 39.1789 36.5712 39.1789 27.3944C39.1789 18.2176 31.7396 10.7783 22.5628 10.7783C13.386 10.7783 5.94678 18.2176 5.94678 27.3944C5.94678 36.5712 13.386 44.0104 22.5628 44.0104Z" fill="#40B7EA"/>
<path d="M22.563 39.5688C29.2866 39.5688 34.7372 34.1182 34.7372 27.3945C34.7372 20.6708 29.2866 15.2202 22.563 15.2202C15.8393 15.2202 10.3887 20.6708 10.3887 27.3945C10.3887 34.1182 15.8393 39.5688 22.563 39.5688Z" fill="white"/>
<path d="M15.5915 27.3938C15.5915 21.5739 19.6976 16.6975 25.1644 15.5024C24.3256 15.319 23.4558 15.2197 22.5629 15.2197C15.8502 15.2197 10.3887 20.6811 10.3887 27.394C10.3887 34.107 15.85 39.5683 22.5629 39.5683C23.4558 39.5683 24.3256 39.469 25.1644 39.2856C19.6976 38.0902 15.5915 33.2138 15.5915 27.3938Z" fill="#FFF3DE"/>
<path d="M22.563 40.7699C15.1878 40.7699 9.1875 34.7698 9.1875 27.3945C9.1875 20.0191 15.1878 14.019 22.563 14.019C29.9381 14.019 35.9384 20.0191 35.9384 27.3945C35.9384 34.7698 29.9383 40.7699 22.563 40.7699ZM22.563 16.4214C16.5124 16.4214 11.5898 21.3438 11.5898 27.3945C11.5898 33.4452 16.5122 38.3676 22.563 38.3676C28.6137 38.3676 33.5361 33.4452 33.5361 27.3945C33.5361 21.3438 28.6137 16.4214 22.563 16.4214Z" fill="#0989D0"/>
<path d="M22.563 25.152C23.005 25.152 23.4165 25.2823 23.7642 25.504V19.0034C23.7642 18.3401 23.2264 17.8022 22.563 17.8022C21.8996 17.8022 21.3618 18.3401 21.3618 19.0034V25.504C21.7095 25.2823 22.121 25.152 22.563 25.152Z" fill="#0989D0"/>
<path d="M22.563 29.7964C23.8898 29.7964 24.9653 28.7208 24.9653 27.394C24.9653 26.0673 23.8898 24.9917 22.563 24.9917C21.2362 24.9917 20.1606 26.0673 20.1606 27.394C20.1606 28.7208 21.2362 29.7964 22.563 29.7964Z" fill="#1B97DC"/>
<path d="M77.2542 45.2117L70.3135 45.2114L69.935 45.3716C69.9352 61.3403 56.9627 74.3128 40.9941 74.3125L40.834 74.6776L40.8341 81.6638L40.9943 81.9998C61.283 81.9998 77.6223 65.6607 77.6223 45.3717L77.2542 45.2117Z" fill="#00D670"/>
<path d="M41.916 8.75565C41.4112 8.74316 40.9941 9.14884 40.9941 9.65397V15.5493C40.9941 16.034 41.3795 16.4302 41.8639 16.4446C57.4449 16.9046 69.9345 29.6798 69.9347 45.372L77.622 45.3723C77.6222 25.4513 61.7192 9.24477 41.916 8.75565Z" fill="#00CC36"/>
<path d="M40.9941 74.3126C25.3018 74.3125 12.5266 61.8228 12.0667 46.2419C12.0524 45.7574 11.6562 45.3721 11.1714 45.3721H5.27604C4.77107 45.3721 4.36523 45.789 4.37772 46.2939C4.867 66.0969 21.0735 82 40.9944 82L40.9941 74.3126Z" fill="#FED402"/>
<path d="M7.83709 46.2939C7.8246 45.7891 8.23043 45.3721 8.73541 45.3721H5.27603C4.77106 45.3721 4.36538 45.789 4.37772 46.2939C4.86683 66.0971 21.0734 82.0001 40.9942 82.0001V81.8369C22.6885 80.1218 8.2977 64.9371 7.83709 46.2939Z" fill="#FAC600"/>
</g>
<defs>
<clipPath id="clip0">
<rect width="82" height="82" fill="white"/>
</clipPath>
</defs>
</svg>
