<svg width="82" height="82" viewBox="0 0 82 82" fill="none" xmlns="http://www.w3.org/2000/svg">
<g clip-path="url(#clip0)">
<path d="M67.9481 67.1641H63.7739V79.8002L63.9341 80.0379H67.7878L67.9481 79.8002V67.1641Z" fill="#40B7EA"/>
<path d="M81.8249 78.6893L72.1445 66.1064L71.9844 66.5155V79.8003L72.1445 80.038H81.1609C81.8561 80.038 82.2488 79.2402 81.8249 78.6893Z" fill="#40B7EA"/>
<path d="M59.7379 52.5911L59.5778 52.3283L55.7549 48.5054L44.6226 62.9755L44.6455 63.2929L55.919 79.8001L56.2751 80.0377H59.5778L59.7379 79.8001V52.5911Z" fill="#40B7EA"/>
<path d="M55.6564 48.6338L44.6226 62.9759L47.8504 67.7023L59.5357 52.5133L55.6564 48.6338Z" fill="#0989D0"/>
<path d="M27.2352 39.3491C27.3564 39.1716 27.5492 39.0697 27.7642 39.0697C27.9791 39.0697 28.1719 39.1716 28.2932 39.3491L28.9653 40.3334V31.5171H26.7231L26.563 31.6772V40.3334L27.2352 39.3491Z" fill="#D88A55"/>
<path d="M36.1042 50.5024L35.871 50.5599L31.1448 57.48C31.0191 57.6641 30.8191 57.77 30.596 57.77C30.3727 57.77 30.1727 57.6643 30.0469 57.48L27.9971 54.4786C27.8134 54.2096 27.5091 54.0491 27.1835 54.0491C26.8577 54.0491 26.5536 54.2096 26.3699 54.4785L21.2866 61.9222C21.1608 62.1064 20.9608 62.2121 20.7375 62.2121C20.5144 62.2121 20.3142 62.1066 20.1885 61.9221L16.0035 55.7942H15.8095L0.147368 78.7276C-0.232363 79.2836 0.165785 80.0378 0.839242 80.0378H56.2751L36.1042 50.5024Z" fill="#00CC36"/>
<path d="M6.99453 78.7277L19.2332 60.8073L15.8097 55.7944L0.147368 78.7277C-0.232363 79.2837 0.165785 80.0379 0.839242 80.0379H7.68624C7.01295 80.0379 6.6148 79.2837 6.99453 78.7277Z" fill="#03B761"/>
<path d="M27.8647 54.5693L29.9145 57.5708C30.242 58.0505 30.9495 58.0505 31.277 57.5708L36.1041 50.5028L28.4251 39.2588C28.1072 38.7933 27.4204 38.7933 27.1025 39.2588L15.8096 55.7945L20.0563 62.0127C20.3838 62.4924 21.0912 62.4924 21.4187 62.0127L26.5022 54.5693C26.8298 54.0896 27.5372 54.0896 27.8647 54.5693Z" fill="#FFF3DE"/>
<path d="M27.1025 39.2588L15.8096 55.7945L19.2331 60.8074L31.1873 43.3034L28.4251 39.2588C28.107 38.7933 27.4204 38.7933 27.1025 39.2588Z" fill="#FFE5C2"/>
<path d="M38.5339 31.6771H26.563V23.0693C26.563 22.6271 26.9216 22.2686 27.3638 22.2686H38.5339C38.9761 22.2686 39.3347 22.6271 39.3347 23.0693V30.8763C39.3347 31.3187 38.9761 31.6771 38.5339 31.6771Z" fill="#FE646F"/>
<path d="M32.3515 22.2686H27.3633C26.9211 22.2686 26.5625 22.6271 26.5625 23.0693V31.6771H31.5507V23.0693C31.5507 22.6271 31.9093 22.2686 32.3515 22.2686Z" fill="#FD4755"/>
<path d="M79.5679 42.1696C78.75 41.3517 77.4239 41.3517 76.606 42.1696L70.198 48.5776C69.2657 49.9828 67.6702 50.9116 65.8611 50.9116C64.0521 50.9116 62.4565 49.9828 61.5244 48.5778L55.1164 42.1697C54.2985 41.3518 52.9724 41.3518 52.1545 42.1697C51.3365 42.9877 51.3365 44.3138 52.1545 45.1317L59.578 52.5552V80.0382H63.9344V67.3245H67.7881V80.0382H72.1445V52.5551L79.5681 45.1315C80.3858 44.3136 80.3858 42.9875 79.5679 42.1696Z" fill="#FFE5C2"/>
<path d="M61.0671 48.1103L55.1164 42.1696C54.2985 41.3517 52.9724 41.3517 52.1545 42.1696C51.3365 42.9875 51.3365 44.3136 52.1545 45.1315L59.578 52.5551V80.0381H62.5119L62.5228 49.9039C61.9166 49.4205 61.4179 48.8092 61.0671 48.1103Z" fill="#FED2A4"/>
<path d="M65.8612 51.0716C68.8224 51.0716 71.2229 48.6711 71.2229 45.7099C71.2229 42.7487 68.8224 40.3481 65.8612 40.3481C62.9 40.3481 60.4995 42.7487 60.4995 45.7099C60.4995 48.6711 62.9 51.0716 65.8612 51.0716Z" fill="#FFE5C2"/>
<path d="M64.5431 45.7099C64.5431 43.4641 65.9243 41.5421 67.883 40.7437C67.2589 40.4894 66.5768 40.3481 65.8612 40.3481C62.8999 40.3481 60.4995 42.7487 60.4995 45.7099C60.4995 48.671 62.9001 51.0716 65.8612 51.0716C66.5768 51.0716 67.2589 50.9303 67.883 50.676C65.9243 49.8778 64.5431 47.9556 64.5431 45.7099Z" fill="#FED2A4"/>
<path d="M61.1287 35.1355C60.8212 35.1355 60.5139 35.0182 60.2793 34.7838L53.1848 27.6892C52.7157 27.2199 52.7157 26.4595 53.1848 25.9904C53.6542 25.5213 54.4147 25.5216 54.8836 25.9904L61.9781 33.085C62.4472 33.5542 62.4472 34.3147 61.9781 34.7838C61.7436 35.0181 61.4361 35.1355 61.1287 35.1355Z" fill="#B3DAFE"/>
<path d="M46.2691 49.3118C45.9617 49.3118 45.6542 49.1945 45.4196 48.9601L40.1399 43.6804C39.6708 43.2111 39.6708 42.4507 40.1399 41.9816C40.6092 41.5126 41.3696 41.5126 41.8387 41.9816L47.1184 47.2613C47.5875 47.7306 47.5875 48.491 47.1184 48.9601C46.8839 49.1945 46.5764 49.3118 46.2691 49.3118Z" fill="#B3DAFE"/>
<path d="M74.5343 63.6375C74.2269 63.6375 73.9194 63.5203 73.6848 63.2858L67.4563 57.0573C66.9872 56.5881 66.9872 55.8276 67.4563 55.3585C67.9256 54.8896 68.686 54.8896 69.1551 55.3585L75.3836 61.587C75.8527 62.0563 75.8527 62.8167 75.3836 63.2858C75.1491 63.5201 74.8416 63.6375 74.5343 63.6375Z" fill="#8AC9FE"/>
<path d="M16.4165 27.0512C16.109 27.0512 15.8017 26.934 15.5671 26.6994L10.6174 21.7496C10.1483 21.2805 10.1483 20.5201 10.6176 20.051C11.0867 19.5819 11.8473 19.582 12.3162 20.0511L17.2658 25.0009C17.7349 25.47 17.7349 26.2304 17.2657 26.6995C17.0314 26.934 16.7239 27.0512 16.4165 27.0512Z" fill="#B3DAFE"/>
<path d="M15.5919 41.075C15.2846 41.075 14.9771 40.9578 14.7424 40.7233L11.2776 37.2585C10.8085 36.7892 10.8085 36.0288 11.2776 35.5597C11.7469 35.0908 12.5073 35.0908 12.9764 35.5597L16.4412 39.0245C16.9103 39.4938 16.9103 40.2542 16.4412 40.7233C16.2066 40.9576 15.8991 41.075 15.5919 41.075Z" fill="#B3DAFE"/>
<path d="M41.6598 74.7333C41.3525 74.7333 41.045 74.6161 40.8104 74.3816L32.7258 66.2971C32.2567 65.8278 32.2567 65.0674 32.7258 64.5983C33.1951 64.1293 33.9555 64.1293 34.4246 64.5983L42.5093 72.6828C42.9784 73.1521 42.9784 73.9125 42.5093 74.3816C42.2747 74.6161 41.9672 74.7333 41.6598 74.7333Z" fill="#B3DAFE"/>
</g>
<defs>
<clipPath id="clip0">
<rect width="82" height="82" fill="white"/>
</clipPath>
</defs>
</svg>
