<svg width="82" height="82" viewBox="0 0 82 82" fill="none" xmlns="http://www.w3.org/2000/svg">
<path d="M59.0181 24.7405C55.3049 21.0273 49.2845 21.0273 45.5711 24.7405L40.9999 29.3117L36.4287 24.7405C32.7155 21.0273 26.6951 21.0272 22.9817 24.7405C19.2685 28.4538 19.2685 34.4742 22.9817 38.1876L40.4251 55.631C40.7425 55.9484 41.2573 55.9484 41.5747 55.631L59.0181 38.1876C62.7314 34.4742 62.7314 28.4538 59.0181 24.7405Z" fill="#00CC36"/>
<path d="M29.8036 36.5355C26.0903 32.8223 26.0903 26.8019 29.8036 23.0885C30.1911 22.7009 30.6051 22.3561 31.0377 22.0494C28.1818 21.6474 25.1781 22.5438 22.9817 24.7403C19.2685 28.4536 19.2685 34.474 22.9817 38.1874L40.4251 55.6308C40.7425 55.9482 41.2573 55.9482 41.5747 55.6308L45.2368 51.9687L29.8036 36.5355Z" fill="#03B761"/>
<path d="M41 8.46057C40.3366 8.46057 39.7988 7.92277 39.7988 7.2594V1.20117C39.7988 0.537805 40.3366 0 41 0C41.6635 0 42.2012 0.537805 42.2012 1.20117V7.2594C42.2012 7.92277 41.6635 8.46057 41 8.46057Z" fill="#00CC36"/>
<path d="M61.5626 16.9777C61.2553 16.9777 60.9478 16.8604 60.7132 16.6258C60.2441 16.1567 60.2441 15.3961 60.7132 14.9272L64.997 10.6433C65.4663 10.1742 66.2267 10.1742 66.6958 10.6433C67.1649 11.1124 67.1649 11.873 66.6958 12.3419L62.4119 16.6258C62.1775 16.8604 61.87 16.9777 61.5626 16.9777Z" fill="#00CC36"/>
<path d="M76.1383 37.5405H70.0801C69.4166 37.5405 68.8789 37.0027 68.8789 36.3394C68.8789 35.676 69.4166 35.1382 70.0801 35.1382H76.1383C76.8018 35.1382 77.3395 35.676 77.3395 36.3394C77.3395 37.0027 76.8017 37.5405 76.1383 37.5405Z" fill="#00CC36"/>
<path d="M41 72.6785C40.3366 72.6785 39.7988 72.1407 39.7988 71.4773V65.4189C39.7988 64.7556 40.3366 64.2178 41 64.2178C41.6635 64.2178 42.2012 64.7556 42.2012 65.4189V71.4773C42.2012 72.1407 41.6635 72.6785 41 72.6785Z" fill="#00CC36"/>
<path d="M11.9202 37.5405H5.86182C5.19845 37.5405 4.66064 37.0027 4.66064 36.3394C4.66064 35.676 5.19845 35.1382 5.86182 35.1382H11.9202C12.5836 35.1382 13.1214 35.676 13.1214 36.3394C13.1214 37.0027 12.5836 37.5405 11.9202 37.5405Z" fill="#00CC36"/>
<path d="M20.4376 16.9777C20.1303 16.9777 19.8228 16.8604 19.5883 16.6258L15.3045 12.3419C14.8354 11.8728 14.8354 11.1123 15.3045 10.6433C15.7736 10.1742 16.5341 10.1742 17.0031 10.6433L21.2869 14.9272C21.756 15.3963 21.756 16.1569 21.2869 16.6258C21.0523 16.8604 20.745 16.9777 20.4376 16.9777Z" fill="#00CC36"/>
<path d="M22.7404 48.8857C21.3956 48.8857 20.3054 49.9759 20.3054 51.3208L20.1453 52.4279V64.7966H10.7255V53.9728L10.5653 52.9443C10.5653 51.5994 9.47516 50.5092 8.13033 50.5092C6.7855 50.5092 5.69531 51.5994 5.69531 52.9443V72.2602C5.69531 77.4211 9.70979 81.6419 14.7861 81.9763L14.9463 81.8256V77.0033C14.9463 73.3125 17.9489 70.3098 21.6397 70.3098H23.874L25.0323 69.1516L25.1756 68.7818V51.3208C25.1754 49.9759 24.0853 48.8857 22.7404 48.8857Z" fill="#FFE5C2"/>
<path d="M15.5956 50.2545L15.4355 49.5351C15.4355 48.1903 14.3453 47.1001 13.0004 47.1001C11.6556 47.1001 10.5654 48.1903 10.5654 49.5351V64.9569H15.4355L15.5956 64.2242V50.2545Z" fill="#FED2A4"/>
<path d="M31.2457 66.1552C30.2947 65.2041 28.753 65.2041 27.802 66.1552L23.8076 70.1496H21.6397C17.8546 70.1496 14.7861 73.218 14.7861 77.0032V81.976C15.0011 81.9901 15.217 81.9999 15.4354 81.9999C19.0162 81.9999 22.144 80.0665 23.8361 77.1875C24.006 76.8983 24.2123 76.6321 24.4495 76.3949L31.2457 69.5987C32.1967 68.6478 32.1967 67.1062 31.2457 66.1552Z" fill="#FED2A4"/>
<path d="M17.8706 43.8535C16.5257 43.8535 15.4355 44.9437 15.4355 46.2885V64.957H20.3056V46.2885C20.3054 44.9437 19.2152 43.8535 17.8706 43.8535Z" fill="#FFBD86"/>
<path d="M59.2594 48.8857C60.6042 48.8857 61.6944 49.9759 61.6944 51.3208L61.8546 52.4279V64.7966H71.2743V53.9728L71.4345 52.9443C71.4345 51.5994 72.5247 50.5092 73.8695 50.5092C75.2143 50.5092 76.3045 51.5994 76.3045 52.9443V72.2602C76.3045 77.4211 72.29 81.6419 67.2137 81.9763L67.0536 81.8256V77.0033C67.0536 73.3125 64.051 70.3098 60.3601 70.3098H58.1258L56.9676 69.1516L56.8242 68.7818V51.3208C56.8244 49.9759 57.9146 48.8857 59.2594 48.8857Z" fill="#FFE5C2"/>
<path d="M66.4043 50.2545L66.5645 49.5351C66.5645 48.1903 67.6546 47.1001 68.9995 47.1001C70.3443 47.1001 71.4345 48.1903 71.4345 49.5351V64.9569H66.5645L66.4043 64.2242V50.2545Z" fill="#FED2A4"/>
<path d="M50.7542 66.1552C51.7052 65.2041 53.2468 65.2041 54.1978 66.1552L58.1923 70.1496H60.3602C64.1453 70.1496 67.2137 73.218 67.2137 77.0032V81.976C66.9988 81.9901 66.7829 81.9999 66.5645 81.9999C62.9837 81.9999 59.8558 80.0665 58.1638 77.1875C57.9939 76.8983 57.7876 76.6321 57.5504 76.3949L50.7542 69.5987C49.8033 68.6478 49.8033 67.1062 50.7542 66.1552Z" fill="#FED2A4"/>
<path d="M64.1294 43.8535C65.4742 43.8535 66.5644 44.9437 66.5644 46.2885V64.957H61.6943V46.2885C61.6943 44.9437 62.7845 43.8535 64.1294 43.8535Z" fill="#FFBD86"/>
</svg>
