<svg width="175" height="42" viewBox="0 0 175 42" fill="none" xmlns="http://www.w3.org/2000/svg">
<g clip-path="url(#clip0)">
<path d="M12.8926 21.0794C12.8926 16.8323 16.3485 13.3882 20.6146 13.3882C24.8793 13.3882 28.3367 16.8308 28.3367 21.0794C28.3367 25.3294 24.8808 28.772 20.6161 28.772C16.3499 28.772 12.8926 25.3279 12.8926 21.0808" fill="#00AA13"/>
<path d="M20.6131 0.570324C9.24255 0.570324 0.0249023 9.75268 0.0249023 21.0806C0.0249023 29.5836 5.17931 36.8424 12.6631 40.0012C13.1894 40.2224 13.7582 40.324 14.3285 40.2987C14.8988 40.2734 15.4564 40.1219 15.961 39.855C16.4656 39.5881 16.9047 39.2126 17.2466 38.7555C17.5885 38.2983 17.8247 37.771 17.9381 37.2115C18.113 36.3394 17.9799 35.4336 17.5616 34.6486C17.1432 33.8637 16.4655 33.2482 15.644 32.9071V32.9056C11.0058 30.9689 7.74549 26.4056 7.74549 21.0806C7.74549 13.9997 13.5058 8.26003 20.6146 8.26003C27.7234 8.26003 33.4852 13.9997 33.4852 21.0806C33.4852 26.4041 30.2249 30.9689 25.5852 32.9041V32.9071C24.7636 33.2485 24.0859 33.8644 23.6677 34.6497C23.2496 35.4351 23.1169 36.3412 23.2924 37.2134C23.4678 38.0857 23.9405 38.87 24.6298 39.4326C25.3191 39.9952 26.1822 40.3011 27.072 40.2983C27.5835 40.2951 28.0898 40.1938 28.5631 39.9997C36.047 36.8409 41.2028 29.5806 41.2028 21.0791C41.2028 9.74974 31.9837 0.567383 20.6131 0.567383" fill="#00AA13"/>
<path d="M100.943 18.8044C100.943 15.0941 98.3883 12.3353 94.4059 12.3353C90.4206 12.3353 87.8677 15.0956 87.8677 18.8058C87.8677 22.5132 90.4221 25.2764 94.4059 25.2764C98.3883 25.2764 100.943 22.5147 100.943 18.8058V18.8044ZM81.4589 18.8058C81.4589 11.9911 86.8706 6.72791 94.4059 6.72791C101.982 6.72791 107.352 11.9911 107.352 18.8058C107.352 25.6206 101.982 30.8823 94.4059 30.8823C86.8721 30.8823 81.4589 25.6206 81.4589 18.8058ZM105.152 35.8176H108.615C110.477 35.8176 111.127 35.1264 111.127 33.4882V6.73526H117.534V33.5735C117.534 39.225 115.24 41.6397 109.135 41.6397H105.15V35.8161L105.152 35.8176ZM71.1868 20.0529C71.1868 22.8764 68.3103 25.1323 64.65 25.1323C60.5118 25.1323 57.9397 22.7014 57.9397 18.6647C57.9397 14.9323 60.6853 12.3706 64.9118 12.3706C68.2677 12.3706 71.1868 14.7147 71.1868 17.3617V20.0529ZM71.4486 6.72055V9.41761H71.3603C69.7044 7.68232 66.9603 6.72644 63.6927 6.72644C56.6765 6.72644 51.4912 11.9353 51.4912 18.6632C51.4912 25.6529 56.8074 30.775 63.9103 30.775C67.0897 30.775 69.7486 29.775 71.3618 27.9956H71.45V30.322C71.45 33.447 68.7471 35.747 65.1736 35.747C61.5706 35.747 59.4736 34.7353 57.653 33.0014L53.4809 37.0014C56.2765 39.9573 60.4912 41.6382 65.3044 41.6382C72.6265 41.6382 77.6353 36.7456 77.6353 30.2353V6.72055H71.4486ZM133.909 11.9029C137.328 11.9029 139.71 13.672 140.013 16.347H127.716C128.063 13.672 130.446 11.9029 133.909 11.9029ZM134.571 25.7058C130.729 25.7058 127.71 23.2323 127.631 20.8323H146.249V19.022C146.249 12.1632 141.485 6.72791 133.778 6.72791C126.504 6.72791 121.309 11.8191 121.309 18.85C121.309 26.0956 126.79 30.8823 134.846 30.8823C139.781 30.8823 143.321 28.525 145.168 26.2676L140.825 23.2353C138.894 25.0308 137.141 25.7058 134.572 25.7058H134.571ZM150.024 0.508789H156.209L156.243 16.347H156.327L166.682 6.67349H174.974L164.241 16.7926L174.931 30.8632H167.528L160.187 20.6941H160.103L156.209 24.3691V30.8808H150.024V0.508789Z" fill="black"/>
</g>
<defs>
<clipPath id="clip0">
<rect width="175" height="41.1765" fill="white" transform="translate(0 0.479492)"/>
</clipPath>
</defs>
</svg>
