<svg width="46" height="46" viewBox="0 0 46 46" fill="none" xmlns="http://www.w3.org/2000/svg">
<g clip-path="url(#clip0)">
<path d="M15.2911 14.1951C14.2343 15.2387 13.414 16.4499 12.8565 17.7658C12.2946 19.0924 12 20.5254 12 22C12 23.8569 12.4637 25.6448 13.3157 27.224C14.1672 28.8021 15.4065 30.1717 16.9584 31.1934C17.5949 31.6124 18.1037 32.1703 18.4541 32.811C18.8075 33.4571 19 34.1874 19 34.9441V35.472V36L21 36.6667L23 36L23.6667 23.5005L23 11.001C21.5507 11.002 20.1395 11.2874 18.829 11.8326C17.5305 12.3728 16.331 13.1682 15.2911 14.1951Z" fill="#FFEF4A"/>
<path d="M27.0001 34.9441C27.0001 34.1901 27.1831 33.4682 27.5195 32.8335C27.8605 32.1903 28.3591 31.6368 28.9846 31.2305C30.5543 30.2109 31.8079 28.8389 32.6691 27.2544C33.531 25.6689 34.0001 23.8705 34.0001 21.9999C34.0001 20.5431 33.7181 19.1282 33.1802 17.8185C32.6423 16.5087 31.8483 15.3041 30.8243 14.268C29.8013 13.233 28.6079 12.4253 27.3066 11.8719C26.0049 11.3183 24.5953 11.019 23.1406 11.0008C23.1171 11.0005 23.0937 11.0005 23.0703 11.0005C23.0468 11.0007 23.0235 11.0008 23 11.0008V23.5003V35.9999L25 36.6665L27 35.9999V35.472V34.9441H27.0001Z" fill="#FFCB00"/>
<path d="M22 6V7.5V9H22.5H23L23.6667 7.5L23 6H22.5H22Z" fill="#FFEF4A"/>
<path d="M24 6H23.5H23V7.5V9H23.5H24V7.5V6Z" fill="#FFCB00"/>
<path d="M10.978 11.3931L12.392 9.97911L14.513 12.1001L13.099 13.5141L10.978 11.3931Z" fill="#FFEF4A"/>
<path d="M7 21H10V23H7V21Z" fill="#FFEF4A"/>
<path d="M10.9761 32.604L13.0971 30.483L14.511 31.897L12.39 34.018L10.9761 32.604Z" fill="#FFEF4A"/>
<path d="M31.4854 31.8996L32.546 32.9602L33.6068 34.0209L34.3138 33.3138L35.0209 32.6068L33.9602 31.5461L32.8996 30.4854L32.1925 31.1925L31.4854 31.8996Z" fill="#FFCB00"/>
<path d="M36 23H37.5H39V22V21H37.5H36V22V23Z" fill="#FFCB00"/>
<path d="M31.4854 12.1008L32.1925 12.8079L32.8996 13.515L33.9602 12.4544L35.0209 11.3936L34.3138 10.6866L33.6068 9.97949L32.546 11.0402L31.4854 12.1008Z" fill="#FFCB00"/>
<path d="M27.0002 38H28.0002H29.0002V37V36H28.0002H27.0002L26.3335 37L27.0002 38Z" fill="#FFCB00"/>
<path d="M19 38H17V36H19L19.6667 37L19 38Z" fill="#FFEF4A"/>
<path d="M19 36V38V40H21H23L23.6667 38L23 36H21H19Z" fill="#FFCB00"/>
<path d="M27 36H25H23V38V40H25H27V38V36Z" fill="#FFB454"/>
</g>
<defs>
<clipPath id="clip0">
<rect width="34" height="34" fill="white" transform="translate(6 6)"/>
</clipPath>
</defs>
</svg>
