<svg width="46" height="46" viewBox="0 0 46 46" fill="none" xmlns="http://www.w3.org/2000/svg">
<circle cx="23" cy="23" r="23" fill="white"/>
<path d="M40 17.9531V39.0039C40 39.5616 39.5619 40 39.0039 40H6.99609C6.43813 40 6 39.5616 6 39.0039V17.9531L9.06792 15.9609H37.7489L40 17.9531Z" fill="#C7FFE4"/>
<path d="M40 17.9531V39.0039C40 39.5616 39.5619 40 39.0039 40H23V15.9609H37.7489L40 17.9531Z" fill="#65F3AF"/>
<path d="M40 12.9727V17.9531H6V12.9727C6 11.319 7.33461 9.98438 8.98828 9.98438H15.9277L16.9835 8.98828L17.9596 9.98438H23.8965L25.1515 8.98828L25.9284 9.98438H31.8652L32.6621 8.98828L33.8971 9.98438H37.0117C38.6654 9.98438 40 11.319 40 12.9727Z" fill="#5AA2CA"/>
<path d="M40 12.9727V17.9531H23V9.98438H23.8965L25.1515 8.98828L25.9284 9.98438H31.8652L32.6621 8.98828L33.8971 9.98438H37.0117C38.6654 9.98438 40 11.319 40 12.9727Z" fill="#5A8EE0"/>
<path d="M33.957 23V26.9844C33.957 27.5421 33.5189 27.9805 32.9609 27.9805C32.403 27.9805 31.9648 27.5421 31.9648 26.9844V25.4106L23.6973 33.6582C23.518 33.8574 23.2589 33.957 23 33.957C22.7411 33.957 22.482 33.8574 22.3027 33.6582L19.0156 30.3911L13.7363 35.6504C13.3579 36.0488 12.7203 36.0488 12.3418 35.6504C11.9434 35.2719 11.9434 34.6343 12.3418 34.2559L18.3184 28.2793C18.6968 27.8809 19.3342 27.8809 19.7129 28.2793L23 31.5464L30.5503 23.9961H28.9766C28.4186 23.9961 27.9805 23.5577 27.9805 23C27.9805 22.442 28.4186 22.0039 28.9766 22.0039H32.9609C33.5189 22.0039 33.957 22.442 33.957 23Z" fill="#7C8388"/>
<path d="M15.0312 23.9961H11.0469C10.4964 23.9961 10.0508 23.5504 10.0508 23C10.0508 22.4496 10.4964 22.0039 11.0469 22.0039H15.0312C15.5817 22.0039 16.0273 22.4496 16.0273 23C16.0273 23.5504 15.5817 23.9961 15.0312 23.9961Z" fill="white"/>
<path d="M15.0312 27.9805H11.0469C10.4964 27.9805 10.0508 27.5348 10.0508 26.9844C10.0508 26.4339 10.4964 25.9883 11.0469 25.9883H15.0312C15.5817 25.9883 16.0273 26.4339 16.0273 26.9844C16.0273 27.5348 15.5817 27.9805 15.0312 27.9805Z" fill="white"/>
<path d="M34.9531 31.9648H30.9688C30.4183 31.9648 29.9727 31.5192 29.9727 30.9688C29.9727 30.4183 30.4183 29.9727 30.9688 29.9727H34.9531C35.5036 29.9727 35.9492 30.4183 35.9492 30.9688C35.9492 31.5192 35.5036 31.9648 34.9531 31.9648Z" fill="white"/>
<path d="M34.9531 35.9492H30.9688C30.4183 35.9492 29.9727 35.5036 29.9727 34.9531C29.9727 34.4027 30.4183 33.957 30.9688 33.957H34.9531C35.5036 33.957 35.9492 34.4027 35.9492 34.9531C35.9492 35.5036 35.5036 35.9492 34.9531 35.9492Z" fill="white"/>
<path d="M15.0312 7.99219C15.231 7.99219 15.7371 8.70917 15.9334 9.98438H17.963C17.701 7.65575 16.5285 6 15.0312 6C13.534 6 12.3615 7.65575 12.0995 9.98438C12.0635 10.305 12.043 10.637 12.043 10.9805C12.043 13.8199 13.328 15.9609 15.0312 15.9609C15.5817 15.9609 16.0273 15.5153 16.0273 14.9648C16.0273 14.4144 15.5817 13.9688 15.0312 13.9688C14.7833 13.9688 14.0352 12.9083 14.0352 10.9805C14.0352 10.6054 14.0816 10.2923 14.1291 9.98438C14.3254 8.70917 14.8315 7.99219 15.0312 7.99219Z" fill="#575F64"/>
<path d="M23.9961 14.9648C23.9961 15.5226 23.558 15.9609 23 15.9609C21.3066 15.9609 20.0117 13.8292 20.0117 10.9805C20.0117 10.6417 20.0317 10.3032 20.0716 9.98438C20.3305 7.65341 21.5059 6 23 6C24.4941 6 25.6695 7.65341 25.9284 9.98438H23.8965C23.6973 8.70943 23.1992 7.99219 23 7.99219C22.8008 7.99219 22.3027 8.70943 22.1035 9.98438C22.0439 10.2832 22.0039 10.602 22.0039 10.9805C22.0039 12.9127 22.7608 13.9688 23 13.9688C23.558 13.9688 23.9961 14.4069 23.9961 14.9648Z" fill="#575F64"/>
<path d="M30.9688 13.9688C30.7208 13.9688 29.9727 12.9083 29.9727 10.9805C29.9727 10.6054 30.0191 10.2923 30.0666 9.98438C30.2629 8.70917 30.769 7.99219 30.9688 7.99219C31.1685 7.99219 31.6746 8.70917 31.8709 9.98438H33.9005C33.6385 7.65575 32.466 6 30.9688 6C29.4715 6 28.299 7.65575 28.037 9.98438C28.001 10.305 27.9805 10.637 27.9805 10.9805C27.9805 13.8199 29.2655 15.9609 30.9688 15.9609C31.5192 15.9609 31.9648 15.5153 31.9648 14.9648C31.9648 14.4144 31.5192 13.9688 30.9688 13.9688Z" fill="#32393F"/>
<path d="M23 15.9609V13.9688C23.558 13.9688 23.9961 14.4069 23.9961 14.9648C23.9961 15.5226 23.558 15.9609 23 15.9609Z" fill="#575F64"/>
<path d="M23 7.99219V6C24.4941 6 25.6695 7.65341 25.9284 9.98438H23.8965C23.6973 8.70943 23.1992 7.99219 23 7.99219Z" fill="#32393F"/>
<path d="M33.957 23V26.9844C33.957 27.5421 33.5189 27.9805 32.9609 27.9805C32.403 27.9805 31.9648 27.5421 31.9648 26.9844V25.4106L23.6973 33.6582C23.518 33.8574 23.2589 33.957 23 33.957V31.5464L30.5503 23.9961H28.9766C28.4186 23.9961 27.9805 23.5577 27.9805 23C27.9805 22.442 28.4186 22.0039 28.9766 22.0039H32.9609C33.5189 22.0039 33.957 22.442 33.957 23Z" fill="#575F64"/>
</svg>
