<svg width="46" height="46" viewBox="0 0 46 46" fill="none" xmlns="http://www.w3.org/2000/svg">
<circle cx="23" cy="23" r="23" fill="white"/>
<path d="M14.9648 30.0391H6.99609C6.43813 30.0391 6 30.4772 6 31.0352V39.0039C6 39.5616 6.43813 40 6.99609 40H14.9648C15.5228 40 15.9609 39.5616 15.9609 39.0039V31.0352C15.9609 30.4772 15.5228 30.0391 14.9648 30.0391Z" fill="#5AA2CA"/>
<path d="M31.4134 12.0561C30.9751 11.8768 30.477 12.0161 30.1982 12.4146L27.1702 16.9769L23.8963 10.5419C23.7171 10.2034 23.3583 10.0239 22.9998 10.0239C22.6413 10.0239 22.2826 10.2034 22.1033 10.5419L18.8295 16.9769L15.8012 12.4146C15.5224 12.0161 15.0243 11.8768 14.5862 12.0561C14.1478 12.2353 13.8889 12.6937 13.9885 13.1717L15.9807 23.1991C16.0803 23.6572 16.4788 23.996 16.9569 23.996H29.0428C29.5209 23.996 29.9193 23.6572 30.0189 23.1991L32.0111 13.1717C32.1107 12.6937 31.8518 12.2353 31.4134 12.0561Z" fill="#FDBF00"/>
<path d="M32.0113 13.1717L30.0191 23.1991C29.9195 23.6572 29.521 23.996 29.043 23.996H23V10.0239C23.3585 10.0239 23.7172 10.2034 23.8965 10.5419L27.1704 16.9769L30.1986 12.4146C30.4774 12.0161 30.9755 11.8768 31.4136 12.0561C31.852 12.2353 32.1109 12.6937 32.0113 13.1717Z" fill="#FF9100"/>
<path d="M27.0508 25.9883H18.9492C18.3913 25.9883 17.9531 26.4264 17.9531 26.9844V39.0039C17.9531 39.5616 18.3913 40 18.9492 40H27.0508C27.6087 40 28.0469 39.5616 28.0469 39.0039V26.9844C28.0469 26.4264 27.6087 25.9883 27.0508 25.9883Z" fill="#FFDA2D"/>
<path d="M39.0039 34.0234H31.0352C30.4772 34.0234 30.0391 34.4616 30.0391 35.0195V39.0039C30.0391 39.5616 30.4772 40 31.0352 40H39.0039C39.5619 40 40 39.5616 40 39.0039V35.0195C40 34.4616 39.5619 34.0234 39.0039 34.0234Z" fill="#FF637B"/>
<path d="M28.0469 26.9844V39.0039C28.0469 39.5616 27.6087 40 27.0508 40H23V25.9883H27.0508C27.6087 25.9883 28.0469 26.4264 28.0469 26.9844Z" fill="#FDBF00"/>
<path d="M23 6C21.3463 6 19.9453 7.33461 19.9453 8.98828C19.9453 10.6417 21.3463 11.9766 23 11.9766C24.6537 11.9766 26.0547 10.6417 26.0547 8.98828C26.0547 7.33461 24.6537 6 23 6Z" fill="#FFDA2D"/>
<path d="M14.9648 13.9688C13.3171 13.9688 11.9766 12.6282 11.9766 10.9805C11.9766 9.33276 13.3171 7.99219 14.9648 7.99219C16.6125 7.99219 17.9531 9.33276 17.9531 10.9805C17.9531 12.6282 16.6125 13.9688 14.9648 13.9688Z" fill="#FFDA2D"/>
<path d="M31.0352 13.9688C29.3875 13.9688 28.0469 12.6282 28.0469 10.9805C28.0469 9.33276 29.3875 7.99219 31.0352 7.99219C32.6829 7.99219 34.0234 9.33276 34.0234 10.9805C34.0234 12.6282 32.6829 13.9688 31.0352 13.9688Z" fill="#FDBF00"/>
<path d="M23 11.9766V6C24.6537 6 26.0547 7.33461 26.0547 8.98828C26.0547 10.6417 24.6537 11.9766 23 11.9766Z" fill="#FDBF00"/>
<path d="M15.9609 31.0352V39.0039C15.9609 39.5616 15.5228 40 14.9648 40H10.9805V30.0391H14.9648C15.5228 30.0391 15.9609 30.4772 15.9609 31.0352Z" fill="#5A8EE0"/>
<path d="M40 35.0195V39.0039C40 39.5616 39.5619 40 39.0039 40H35.0195V34.0234H39.0039C39.5619 34.0234 40 34.4616 40 35.0195Z" fill="#E63950"/>
</svg>
