<svg width="46" height="46" viewBox="0 0 46 46" fill="none" xmlns="http://www.w3.org/2000/svg">
<circle cx="23" cy="23" r="23" fill="white"/>
<g clip-path="url(#clip0)">
<path d="M30.876 8.73584C30.8179 8.79393 30.7604 8.85275 30.7034 8.91224C30.6466 8.97167 30.5903 9.0317 30.5347 9.09226L31.5533 9.80933L32.9578 9.55302C33.708 8.93205 34.4715 8.50215 35.1677 8.25447C36.2455 7.87108 37.1623 7.92415 37.6191 8.38095L38.8022 8.14432L39.0388 6.96128C38.0207 5.94327 36.4229 5.75568 34.7217 6.29507C33.43 6.70457 32.0786 7.53326 30.876 8.73584Z" fill="#595454"/>
<path d="M31.7617 14.2384L33.8255 12.1746L35.8895 10.1106L30.5218 9.09002L25.1542 8.06934L15.5771 17.6464L6 27.2236L9.19417 30.4177L12.3883 33.6118L20.4188 26.5277L27.5029 18.4973L27.7833 14.4311L31.7617 14.2384Z" fill="#FFEF4A"/>
<path d="M27.5027 18.497V18.497L19.9454 26.0542L12.3882 33.6116L15.5823 36.8057L18.7765 39.9998L28.3535 30.4227L37.9307 20.8457L36.91 15.478L35.8893 10.1104V10.1104L33.8254 12.1743L31.7615 14.2381L30.8905 17.9168L27.5027 18.497Z" fill="#FFCB00"/>
<path d="M37.2642 15.1243C38.4667 13.9217 39.2955 12.5703 39.705 11.2785C40.2443 9.57733 40.0568 7.9795 39.0387 6.96149V6.96143L38.3289 7.67126L37.6191 8.38103H37.6191C38.0758 8.83777 38.1289 9.75453 37.7456 10.8324C37.4978 11.5287 37.068 12.2922 36.447 13.0424C36.3535 13.1555 36.2557 13.2683 36.1536 13.3806C36.0548 13.4892 35.9519 13.5973 35.8446 13.7046C35.3684 14.1809 34.8562 14.5924 34.3357 14.9244C33.7456 15.3009 33.1446 15.5751 32.5728 15.7255C32.6495 16.0798 32.6621 16.4454 32.6102 16.8031C32.5589 17.1573 32.4445 17.5041 32.2671 17.8252C33.0818 17.7252 33.9305 17.4411 34.763 16.9989C35.5025 16.6062 36.229 16.0889 36.9078 15.4654C36.9681 15.4099 37.0282 15.3538 37.0878 15.2967C37.147 15.2401 37.2058 15.1827 37.2642 15.1243Z" fill="#403B40"/>
<path d="M28.6282 16.3679C28.6282 16.2338 28.6544 16.1038 28.7042 15.9836C28.754 15.8633 28.8275 15.7529 28.9223 15.6581C29.0184 15.5619 29.1294 15.4894 29.2479 15.4405C29.3705 15.3899 29.5013 15.3646 29.6321 15.3646C29.7628 15.3646 29.8935 15.3899 30.0163 15.4405C30.1348 15.4894 30.2457 15.5619 30.3418 15.6581L31.5249 15.4215L31.7615 14.2385C31.1744 13.6514 30.4032 13.3579 29.6321 13.3579C28.8609 13.3579 28.0897 13.6514 27.5027 14.2385C26.9157 14.8255 26.6221 15.5967 26.6221 16.3678C26.6221 17.139 26.9156 17.9102 27.5026 18.4973L28.6857 18.2607L28.9222 17.0777C28.8275 16.9829 28.754 16.8724 28.7041 16.7522C28.6543 16.632 28.6282 16.502 28.6282 16.3679Z" fill="#595454"/>
<path d="M31.7617 18.4971C32.3487 17.9101 32.6423 17.1389 32.6423 16.3677C32.6423 15.5965 32.3488 14.8253 31.7617 14.2383L31.0519 14.9481L30.3421 15.6578C30.4368 15.7527 30.5104 15.8631 30.5602 15.9833C30.61 16.1035 30.6361 16.2336 30.6361 16.3677C30.6361 16.5017 30.61 16.6317 30.5602 16.752C30.5104 16.8723 30.4368 16.9826 30.3421 17.0774C30.1464 17.2731 29.8894 17.371 29.6324 17.371C29.3753 17.371 29.1182 17.2731 28.9225 17.0774C28.7269 16.8818 28.9225 17.0774 28.9225 17.0774L28.2127 17.7872L27.5029 18.497H27.503V18.497C27.7915 18.7855 28.1243 19.003 28.4799 19.1497C28.8479 19.3016 29.2401 19.3776 29.6324 19.3776C30.0247 19.3776 30.417 19.3016 30.785 19.1497C31.1404 19.0032 31.4733 18.7856 31.7617 18.4971Z" fill="#403B40"/>
<path d="M16.4747 25.2661L15.7649 25.9759L15.0552 26.6857L15.7649 27.3955L16.4748 28.1053L15.7649 28.8151L15.0552 29.5249L15.4101 29.8798L15.7649 30.2347L17.6578 29.2883L18.6042 27.3955L17.5394 26.3308L16.4747 25.2661Z" fill="#F4F4F6"/>
<path d="M21.4437 23.137C21.6395 22.9413 21.8965 22.8435 22.1536 22.8435C22.4106 22.8435 22.6676 22.9413 22.8633 23.137L24.7561 22.1905L25.7026 20.2977L25.3477 19.9428L24.9928 19.5879L24.2219 20.3588L23.4511 21.1297C22.885 20.86 22.2516 20.7768 21.644 20.8801C21.0504 20.9811 20.4815 21.2601 20.0241 21.7175C19.4371 22.3045 19.1436 23.0757 19.1436 23.8469C19.1436 24.618 19.4371 25.3892 20.0241 25.9763L21.2071 25.7397L21.4438 24.5566C21.2481 24.361 21.1503 24.1038 21.1503 23.8469C21.1501 23.5897 21.248 23.3327 21.4437 23.137Z" fill="#F4F4F6"/>
<path d="M20.024 25.9762C20.1189 26.071 20.1923 26.1814 20.2421 26.3017C20.2919 26.4219 20.318 26.552 20.318 26.686C20.318 26.8201 20.2919 26.9501 20.2421 27.0703C20.1923 27.1906 20.1187 27.301 20.024 27.3958C19.9291 27.4906 19.8188 27.5641 19.6985 27.6139C19.5783 27.6637 19.4482 27.6898 19.3142 27.6898C19.1801 27.6898 19.05 27.6637 18.9298 27.6139C18.8096 27.5641 18.6991 27.4906 18.6044 27.3958L17.1847 28.8154L15.7651 30.235L16.12 30.59L16.475 30.9449L17.2452 30.1746L18.0154 29.4044C18.2171 29.5009 18.4291 29.5746 18.6483 29.6239C18.8643 29.6725 19.0874 29.6975 19.3142 29.6975C19.7164 29.6975 20.1065 29.6191 20.4672 29.4698C20.828 29.3204 21.1591 29.0999 21.4436 28.8155C21.728 28.5311 21.9485 28.1999 22.0979 27.8391C22.2474 27.4784 22.3257 27.0882 22.3257 26.6861C22.3257 26.2839 22.2474 25.8937 22.0979 25.5331C21.9485 25.1723 21.728 24.8411 21.4436 24.5567H21.4436V24.5566L20.7337 25.2665L20.024 25.9762Z" fill="#ECEAE7"/>
<path d="M24.9927 25.2662L25.7025 24.5563L26.4123 23.8466L25.7025 23.1367L24.9927 22.4269L25.7025 21.717L26.4123 21.0072L26.0574 20.6523L25.7025 20.2974L24.2829 21.717L22.8633 23.1367L23.928 24.2014L24.9927 25.2662Z" fill="#ECEAE7"/>
</g>
<defs>
<clipPath id="clip0">
<rect width="34" height="34" fill="white" transform="translate(6 6)"/>
</clipPath>
</defs>
</svg>
