<svg width="46" height="46" viewBox="0 0 46 46" fill="none" xmlns="http://www.w3.org/2000/svg">
<circle cx="23" cy="23" r="23" fill="white"/>
<path d="M16.4423 33.625H18.6586H20.875L21.5833 34.6875L20.875 35.75H17.1563H13.4375L16.4423 33.625Z" fill="#ECEAE7"/>
<path d="M12.375 29.5578V20.9664V12.375H11.3125H10.25V22.4688V32.5625L12.375 29.5578Z" fill="#ECEAE7"/>
<path d="M36.8125 33.625H28.8437H20.875V34.6875V35.75H28.8437H36.8125V34.6875V33.625Z" fill="#E7DFDD"/>
<path d="M14.7478 30.2514L15.7821 30.4059L17.9364 27.1852L20.0906 23.9644L19.2811 23.1327L18.3238 22.7837L16.1084 26.0959L13.8931 29.408L14.7478 30.2514Z" fill="#ECEAE7"/>
<path d="M26.0102 24.517L25.2589 25.2739L23.9662 24.3893L22.6733 23.5048L23.0972 22.5218L23.9282 21.7886L25.2209 22.6731L26.5137 23.5576L26.0102 24.517Z" fill="#ECEAE7"/>
<path d="M33.43 17.1147L32.4526 16.77L30.6101 19.9014L28.7676 23.0328L29.664 23.6254L30.6502 24.0236L32.5186 20.8481L34.3871 17.6727L33.43 17.1147Z" fill="#E7DFDD"/>
<path d="M13.4375 35.75C12.5587 35.75 11.7619 35.3925 11.1846 34.8154C10.6075 34.2381 10.25 33.4413 10.25 32.5625C10.25 31.6837 10.6075 30.8869 11.1846 30.3096C11.7619 29.7325 12.5587 29.375 13.4375 29.375C14.3163 29.375 15.1131 29.7325 15.6904 30.3096C16.2675 30.8869 16.625 31.6837 16.625 32.5625C16.625 33.4413 16.2675 34.2381 15.6904 34.8154C15.1131 35.3925 14.3163 35.75 13.4375 35.75Z" fill="#FF5C5C"/>
<path d="M17.6875 20.875C17.6875 21.7538 18.045 22.5506 18.6221 23.1279C19.1994 23.705 19.9962 24.0625 20.875 24.0625L21.5833 20.875L20.875 17.6875C19.9962 17.6875 19.1994 18.045 18.6221 18.6221C18.045 19.1994 17.6875 19.9962 17.6875 20.875Z" fill="#FFEF4A"/>
<path d="M20.875 17.6875V20.875V24.0625C21.7538 24.0625 22.5506 23.705 23.1278 23.1279C23.705 22.5506 24.0625 21.7538 24.0625 20.875C24.0625 19.9962 23.705 19.1994 23.1278 18.6221C22.5506 18.045 21.7538 17.6875 20.875 17.6875Z" fill="#FFCB00"/>
<path d="M28.3125 29.3745C27.4337 29.3745 26.6369 29.017 26.0596 28.4399C25.4825 27.8627 25.125 27.0658 25.125 26.187C25.125 25.3083 25.4825 24.5114 26.0596 23.9342C26.6369 23.357 27.4337 22.9995 28.3125 22.9995C29.1913 22.9995 29.9881 23.357 30.5654 23.9342C31.1425 24.5114 31.5 25.3083 31.5 26.187C31.5 27.0658 31.1425 27.8627 30.5654 28.4399C29.9881 29.017 29.1913 29.3745 28.3125 29.3745Z" fill="#A8E62E"/>
<path d="M34.6875 17.6875C33.8087 17.6875 33.0119 17.33 32.4346 16.7529C31.8575 16.1756 31.5 15.3788 31.5 14.5C31.5 13.6212 31.8575 12.8244 32.4346 12.2471C33.0119 11.67 33.8087 11.3125 34.6875 11.3125C35.5663 11.3125 36.3631 11.67 36.9404 12.2471C37.5175 12.8244 37.875 13.6212 37.875 14.5C37.875 15.3788 37.5175 16.1756 36.9404 16.7529C36.3631 17.33 35.5663 17.6875 34.6875 17.6875Z" fill="#00E4EF"/>
</svg>
