<svg width="46" height="46" viewBox="0 0 46 46" fill="none" xmlns="http://www.w3.org/2000/svg">
<circle cx="23" cy="23" r="23" fill="white"/>
<path d="M15 6C14.1729 6 13.4229 6.33647 12.8797 6.87967C12.3365 7.42293 12 8.17293 12 9V23V37C12 37.8271 12.3365 38.5771 12.8797 39.1203C13.4229 39.6636 14.1729 40 15 40H19H23L23.6667 23L23 6H19H15Z" fill="#595454"/>
<path d="M34 37V23V9C34 8.17293 33.6635 7.42293 33.1203 6.87967C32.5771 6.33647 31.8271 6 31 6H27H23V23V40H27H31C31.8271 40 32.5771 39.6636 33.1203 39.1203C33.6635 38.5771 34 37.8271 34 37Z" fill="#403B40"/>
<path d="M17.375 8H16.1875H15C14.7243 8 14.4743 8.11213 14.2932 8.2932C14.1122 8.47427 14 8.72427 14 9V22.5V36L18.5 36.6667L23 36L23.6667 23.5L23 11L17.375 8Z" fill="#00E4EF"/>
<path d="M23 11V23.5V36L27.5 36.6667L32 36V22.5V9C32 8.72427 31.8879 8.47427 31.7068 8.2932C31.5257 8.11213 31.2757 8 31 8H29.8125H28.6251L23 11Z" fill="#83B3FF"/>
<path d="M14 36V36.5V37C14 37.2757 14.1122 37.5257 14.2932 37.7068C14.4743 37.8879 14.7243 38 15 38H19H23L23.6667 37L23 36H18.5H14Z" fill="#5ECBF1"/>
<path d="M32 37V36.5V36H27.5H23V37V38H27H31C31.2757 38 31.5257 37.8879 31.7068 37.7068C31.8879 37.5257 32 37.2757 32 37Z" fill="#5A8EE0"/>
<path d="M27 25H28H29V26V27L31 26L33 25H36.5H40V21V17H33.5H27V21V25Z" fill="#FFEE00"/>
<path d="M30 22H33.5H37V21V20H33.5H30V21V22Z" fill="#FFCB00"/>
<path d="M19 21H6V29H13L17 31V29H19V21Z" fill="#00CC36"/>
<path d="M9 24H16V26H9V24Z" fill="#03B761"/>
<path d="M17.375 8L18.25 9.5L19.125 11H21.0625H23L23.6667 9.5L23 8H20.1875H17.375Z" fill="#5ECBF1"/>
<path d="M28.625 8H25.8125H23V9.5V11H25.0625H27.125L27.875 9.5L28.625 8Z" fill="#5A8EE0"/>
</svg>
