<svg width="62" height="42" viewBox="0 0 62 42" fill="none" xmlns="http://www.w3.org/2000/svg">
<path d="M60.4887 38.5359H57.0354L48.1638 25.8223V38.539H44.7104V20.6128H48.1638L57.0596 33.3777V20.6128H60.4887V38.5359Z" fill="black"/>
<path fill-rule="evenodd" clip-rule="evenodd" d="M0.83252 38.3772V20.4541H7.65458C9.905 20.4541 11.6179 20.8601 12.7931 21.6721C13.9684 22.4841 14.5561 23.6948 14.5561 25.3043C14.5661 26.0933 14.3083 26.8662 13.8171 27.5194C13.2802 28.2085 12.5293 28.7394 11.6587 29.0454C12.6568 29.2624 13.539 29.7875 14.152 30.5294C14.7524 31.2927 15.062 32.2107 15.0344 33.1459C15.0344 34.8269 14.4352 36.1196 13.2369 37.0239C12.0386 37.9282 10.3211 38.3793 8.08452 38.3772H0.83252ZM4.28585 28.0001H7.68221C8.75619 28.0001 9.5965 27.7802 10.2031 27.3405C10.8098 26.9008 11.1125 26.2786 11.1114 25.4739C11.1114 24.5872 10.8316 23.9468 10.2722 23.5528C9.71277 23.1587 8.84022 22.9617 7.65458 22.9617H4.28585V28.0001ZM4.28585 35.8899V30.2899L8.41949 30.2852C10.5329 30.3225 11.5897 31.2745 11.5897 33.1412C11.5897 34.0051 11.2846 34.6791 10.6745 35.1634C10.0644 35.6477 9.21721 35.8899 8.13287 35.8899H4.28585Z" fill="black"/>
<path d="M47.2453 15.7593C47.8505 17.4426 48.1592 19.201 48.1604 20.9704H52.5306C52.5214 13.1297 47.6448 5.95234 39.8983 2.37842L37.9092 5.88308C42.3554 7.92544 45.7152 11.4796 47.2453 15.7593Z" fill="#5AA2CA"/>
<path d="M40.7411 17.654C41.1265 18.7252 41.3229 19.8443 41.323 20.9704H44.1064C44.0996 15.9775 40.9915 11.4081 36.0567 9.13574L34.791 11.3664C37.6242 12.6654 39.7656 14.9282 40.7411 17.654Z" fill="#5AA2CA"/>
<path d="M48.1606 20.9703C48.1567 26.8711 44.7477 32.3456 39.1602 35.4245C33.5726 38.5034 26.6102 38.7438 20.7774 36.0592L18.79 39.5685C25.9782 42.8786 34.5599 42.5824 41.4458 38.7865C48.3317 34.9906 52.5305 28.2415 52.5308 20.9688L48.1606 20.9703Z" fill="#FFD800"/>
<path d="M41.3229 20.9702C41.3254 24.7301 39.1554 28.22 35.5952 30.1819C32.035 32.1438 27.5979 32.2948 23.8836 30.5804L22.6162 32.8111C27.1926 34.9189 32.6565 34.7307 37.0409 32.3141C41.4252 29.8976 44.0989 25.6007 44.0994 20.9702L41.3229 20.9702Z" fill="#FFD800"/>
<path d="M22.2123 1.10132C13.2904 3.69991 6.9847 10.8846 6.23559 19.3049C5.48647 27.7253 10.4415 35.723 18.7901 39.5686L20.7792 36.064C14.5804 33.4176 10.4707 27.9424 10.0531 21.774C9.63554 15.6056 12.9762 9.72102 18.7721 6.41556C24.568 3.11009 31.9011 2.90727 37.9112 5.88621L39.9003 2.38154C34.4284 -0.148941 28.0625 -0.609694 22.2123 1.10132Z" fill="#08E179"/>
<path d="M24.8037 8.32197C19.1246 9.97673 15.1108 14.5502 14.6334 19.9103C14.1561 25.2704 17.3093 30.3618 22.623 32.8111L23.8903 30.5804C20.0457 28.8427 17.5306 25.3812 17.3009 21.5117C17.0711 17.6422 19.1621 13.9587 22.779 11.8615C26.3959 9.76423 30.9834 9.57518 34.7977 11.3662L36.0564 9.13553C32.5748 7.52718 28.5255 7.23442 24.8037 8.32197Z" fill="#08E179"/>
<path d="M60.4887 20.6346H57.0354L48.1638 7.91796V20.6346H44.7104V2.70996H48.1638L57.0596 15.4764V2.70996H60.4887V20.6346Z" fill="black"/>
<path d="M13.5734 23.5217C13.813 23.5205 14.0515 23.5509 14.2814 23.6119C14.0236 22.8405 13.5029 22.1619 12.793 21.6721C11.6165 20.8601 9.90368 20.4541 7.65441 20.4541H4.99707C5.02124 21.2754 4.99707 22.0952 5.09204 22.9243C5.09129 22.9378 5.09129 22.9513 5.09204 22.9648H7.65441C8.8389 22.9648 9.71144 23.1618 10.272 23.5559C10.7002 23.8577 10.9627 24.3103 11.0559 24.9014C11.1216 24.9014 11.1854 24.8921 11.2545 24.8921C11.322 24.892 11.3894 24.8951 11.4565 24.9014C11.7243 24.0566 12.5989 23.4865 13.5734 23.5217Z" fill="black"/>
<path fill-rule="evenodd" clip-rule="evenodd" d="M0.83252 20.6346V2.70996H7.65458C9.905 2.70996 11.6179 3.11648 12.7931 3.92952C13.9684 4.74255 14.5561 5.95278 14.5561 7.56018C14.5664 8.34967 14.3085 9.12313 13.8171 9.77685C13.2802 10.466 12.5293 10.9968 11.6587 11.3028C12.6568 11.5198 13.539 12.0449 14.152 12.7869C14.752 13.5491 15.0616 14.466 15.0344 15.4002C15.0344 17.0833 14.4352 18.376 13.2369 19.2782C12.0386 20.1804 10.3211 20.6326 8.08452 20.6346H0.83252ZM4.28585 10.2575H7.68221C8.75619 10.2575 9.5965 10.0377 10.2031 9.59796C10.8098 9.15826 11.1125 8.53603 11.1114 7.73129C11.1114 6.84463 10.8316 6.20477 10.2722 5.81174C9.71277 5.4187 8.84022 5.22166 7.65458 5.22063H4.28585V10.2575ZM4.28585 18.1457V12.5457L8.41949 12.5411C10.5329 12.5784 11.5897 13.5304 11.5897 15.3971C11.5897 16.2609 11.2846 16.935 10.6745 17.4193C10.0644 17.9036 9.21721 18.1457 8.13287 18.1457H4.28585Z" fill="black"/>
</svg>
