<svg width="47" height="32" viewBox="0 0 47 32" fill="none" xmlns="http://www.w3.org/2000/svg">
<path d="M46.0867 29.3608H43.4556L36.6963 19.6743V29.3632H34.0652V15.7051H36.6963L43.474 25.4307V15.7051H46.0867V29.3608Z" fill="white"/>
<path fill-rule="evenodd" clip-rule="evenodd" d="M0.634277 29.2397V15.584H5.83204C7.54664 15.584 8.85168 15.8933 9.74713 16.512C10.6426 17.1307 11.0903 18.0531 11.0903 19.2794C11.098 19.8805 10.9015 20.4694 10.5273 20.9671C10.1182 21.4921 9.54613 21.8966 8.88281 22.1298C9.64324 22.2951 10.3154 22.6951 10.7825 23.2604C11.2399 23.842 11.4758 24.5414 11.4547 25.2539C11.4547 26.5347 10.9982 27.5196 10.0852 28.2086C9.17223 28.8976 7.86369 29.2413 6.15961 29.2397H0.634277ZM3.26539 21.3333H5.85309C6.67136 21.3333 7.3116 21.1658 7.7738 20.8308C8.236 20.4958 8.46666 20.0217 8.46578 19.4086C8.46578 18.733 8.25266 18.2451 7.82642 17.9449C7.40018 17.6446 6.73538 17.4945 5.83204 17.4945H3.26539V21.3333ZM3.26539 27.3446V23.0779L6.41483 23.0744C8.02507 23.1028 8.83019 23.8281 8.83019 25.2504C8.83019 25.9085 8.59778 26.4221 8.13295 26.7911C7.66812 27.1601 7.02262 27.3446 6.19645 27.3446H3.26539Z" fill="white"/>
<path d="M35.9965 12.007C36.4576 13.2895 36.6929 14.6292 36.6938 15.9773H40.0234C40.0164 10.0035 36.3009 4.535 30.3988 1.81201L28.8833 4.48223C32.2709 6.03832 34.8307 8.74623 35.9965 12.007Z" fill="#5AA2CA"/>
<path d="M31.0407 13.4505C31.3344 14.2667 31.484 15.1194 31.4841 15.9773H33.6048C33.5996 12.1732 31.2315 8.69176 27.4716 6.96045L26.5073 8.66C28.6659 9.64968 30.2975 11.3738 31.0407 13.4505Z" fill="#5AA2CA"/>
<path d="M36.6938 15.9773C36.6907 20.4731 34.0935 24.6441 29.8363 26.99C25.5791 29.3358 20.2744 29.5189 15.8304 27.4736L14.3162 30.1473C19.7928 32.6693 26.3313 32.4436 31.5777 29.5515C36.8241 26.6594 40.0232 21.5172 40.0234 15.9761L36.6938 15.9773Z" fill="#FFD800"/>
<path d="M31.4842 15.9775C31.486 18.8422 29.8327 21.5012 27.1202 22.9959C24.4076 24.4907 21.027 24.6058 18.1971 23.2996L17.2314 24.9992C20.7182 26.6051 24.8812 26.4617 28.2217 24.6205C31.5621 22.7794 33.5992 19.5055 33.5996 15.9775L31.4842 15.9775Z" fill="#FFD800"/>
<path d="M16.9236 0.839075C10.126 2.81896 5.32158 8.29297 4.75082 14.7085C4.18006 21.124 7.95533 27.2175 14.3162 30.1475L15.8317 27.4773C11.1088 25.461 7.97757 21.2894 7.65941 16.5897C7.34126 11.8899 9.88653 7.40647 14.3025 4.88802C18.7184 2.36957 24.3055 2.21504 28.8846 4.4847L30.4001 1.81448C26.2311 -0.113502 21.3808 -0.464552 16.9236 0.839075Z" fill="#08E179"/>
<path d="M18.898 6.34085C14.5711 7.60162 11.5129 11.0862 11.1492 15.17C10.7855 19.2539 13.188 23.1331 17.2365 24.9992L18.2021 23.2997C15.2729 21.9757 13.3566 19.3384 13.1815 16.3902C13.0065 13.4419 14.5996 10.6355 17.3554 9.03763C20.1111 7.43972 23.6063 7.29568 26.5125 8.66026L27.4715 6.9607C24.8189 5.73529 21.7337 5.51224 18.898 6.34085Z" fill="#08E179"/>
<path d="M46.0867 15.7213H43.4556L36.6963 6.03245V15.7213H34.0652V2.06445H36.6963L43.474 11.7913V2.06445H46.0867V15.7213Z" fill="white"/>
<path d="M10.3417 17.9212C10.5243 17.9203 10.706 17.9435 10.8811 17.9899C10.6847 17.4022 10.288 16.8851 9.74711 16.512C8.85077 15.8933 7.54574 15.584 5.83201 15.584H3.80737C3.82579 16.2098 3.80737 16.8344 3.87973 17.4661C3.87916 17.4763 3.87916 17.4866 3.87973 17.4969H5.83201C6.73448 17.4969 7.39928 17.647 7.82639 17.9472C8.15265 18.1772 8.35262 18.5221 8.42366 18.9724C8.47365 18.9724 8.52232 18.9653 8.57495 18.9653C8.62636 18.9653 8.67773 18.9676 8.72887 18.9724C8.93285 18.3287 9.59927 17.8944 10.3417 17.9212Z" fill="white"/>
<path fill-rule="evenodd" clip-rule="evenodd" d="M0.634277 15.7213V2.06445H5.83204C7.54664 2.06445 8.85168 2.37418 9.74713 2.99364C10.6426 3.6131 11.0903 4.53517 11.0903 5.75986C11.0982 6.36138 10.9017 6.95068 10.5273 7.44875C10.1182 7.97379 9.54612 8.37827 8.88281 8.61142C9.64324 8.77672 10.3154 9.17677 10.7825 9.74208C11.2396 10.3228 11.4755 11.0215 11.4547 11.7332C11.4547 13.0156 10.9982 14.0005 10.0852 14.6879C9.17223 15.3753 7.86369 15.7198 6.15961 15.7213H0.634277ZM3.26539 7.81497H5.85309C6.67136 7.81497 7.3116 7.64746 7.7738 7.31245C8.236 6.97744 8.46666 6.50337 8.46578 5.89023C8.46578 5.21467 8.25266 4.72717 7.82642 4.42771C7.40018 4.12825 6.73538 3.97813 5.83204 3.97734H3.26539V7.81497ZM3.26539 13.825V9.55838L6.41483 9.55483C8.02507 9.58327 8.83019 10.3086 8.83019 11.7308C8.83019 12.389 8.59778 12.9026 8.13295 13.2716C7.66812 13.6406 7.02262 13.825 6.19645 13.825H3.26539Z" fill="white"/>
</svg>
