<svg width="175" height="57" viewBox="0 0 175 57" fill="none" xmlns="http://www.w3.org/2000/svg">
<path fill-rule="evenodd" clip-rule="evenodd" d="M158.438 10.6724C165.285 6.31841 173.881 5.48242 173.881 5.48242C173.881 5.48242 164.761 15.8493 162.531 20.6389C161.843 22.7283 163.284 24.428 163.284 24.428C163.284 24.428 159.289 19.9538 158.438 10.6724Z" fill="#1BA0E2"/>
<path fill-rule="evenodd" clip-rule="evenodd" d="M161.403 9.03613C160.399 9.51685 159.401 10.0597 158.438 10.6722C158.871 15.3932 160.117 18.8704 161.238 21.1478C161.837 22.2075 162.408 23.0942 162.837 23.7279C162.619 23.3054 162.395 22.7164 162.352 22.0295C161.771 19.8073 161.239 15.8803 161.403 9.03613Z" fill="#0D7FCC"/>
<path fill-rule="evenodd" clip-rule="evenodd" d="M152.299 14.7228C152.299 14.7228 151.848 13.1396 151.693 12.6829C151.275 11.4529 150.847 10.2024 150.847 8.06803C150.847 5.1413 155.832 2.0187 158.87 1.03809C158.046 11.6897 159.243 14.9499 160.345 18.4903C162.955 27.2023 168.915 28.462 169.503 29.0526C167.984 28.7242 168.851 29.433 168.851 29.433C168.851 29.433 166.425 27.7453 161.541 26.3635C156.656 24.9817 152.845 24.7703 150.514 23.4461C148.718 22.0974 148.661 20.9987 147.807 20.2613C145.005 17.8386 137.948 16.8198 137.948 16.8198L144.019 17.8091C144.019 17.8091 144.854 17.8091 145.839 17.4553C146.051 17.4275 146.727 16.6568 148.191 17.144C148.793 17.3425 148.624 17.5583 150.349 18.0434C152.535 18.6581 152.299 14.7228 152.299 14.7228Z" fill="#1BA0E2"/>
<path fill-rule="evenodd" clip-rule="evenodd" d="M2.42907 33.1061C2.42907 39.3343 7.17681 40.0714 9.56908 40.0714C10.3052 40.0714 10.8204 39.9977 10.8204 39.9977V36.8283C10.8204 36.8283 10.4892 36.902 9.97392 36.902C8.61217 36.902 5.99908 36.4229 5.99908 32.7007V24.4086H10.4892V21.534H5.99908V16.1534H2.53949V21.534H0V24.4086H2.42907V33.1061ZM14.1094 39.924H17.6794V32.2953C17.6794 31.1528 17.7898 30.0104 18.121 28.9416C18.9675 26.1776 21.0654 24.556 23.3472 24.556C23.8993 24.556 24.3777 24.6666 24.3777 24.6666V21.1286C24.3777 21.1286 23.9361 21.0549 23.4576 21.0549C20.5869 21.0549 18.4155 23.1924 17.569 25.9196H17.4954C17.4954 25.9196 17.569 25.2931 17.569 24.5191V21.276H14.1094V39.924ZM25.576 34.6908C25.576 38.413 28.7044 40.3662 31.9063 40.3662C36.3596 40.3662 37.8686 36.6809 37.8686 36.6809H37.9422C37.9422 36.6809 37.8686 37.3074 37.8686 38.155V39.924H41.181V28.1308C41.181 23.4135 38.5311 20.8338 33.8201 20.8338C29.5509 20.8338 26.8642 23.045 26.8642 23.045L28.3363 25.6616C28.3363 25.6616 30.655 23.8558 33.5257 23.8558C35.8812 23.8558 37.611 24.8877 37.611 27.9465V28.2782H36.8013C33.6729 28.2782 25.576 28.5362 25.576 34.6908ZM29.1828 34.5065C29.1828 31.1528 34.041 30.9685 36.7277 30.9685H37.6478V31.5582C37.6478 34.3222 35.6972 37.4917 32.6792 37.4917C30.3606 37.4917 29.1828 36.0175 29.1828 34.5065ZM50.2114 39.924H54.3334L61.2158 21.276H57.4618L52.9349 33.88C52.5668 34.9119 52.3092 36.4229 52.2724 36.4229H52.1988C52.162 36.4229 51.9412 34.9119 51.5731 33.88L47.0462 21.276H43.2554L50.2114 39.924ZM62.1565 30.6C62.1565 36.1281 66.1681 40.3662 72.02 40.3662C76.4733 40.3662 79.2336 37.7128 79.2336 37.7128L77.7614 35.0962C77.7614 35.0962 75.4428 37.2705 72.2408 37.2705C68.9284 37.2705 66.0209 35.2067 65.8369 31.116H79.4176C79.4176 31.116 79.528 30.0472 79.528 29.5681C79.528 24.7403 76.7309 20.8338 71.4679 20.8338C66.1681 20.8338 62.1565 24.6666 62.1565 30.6ZM65.9473 28.4256C66.4626 25.3668 68.6708 23.6715 71.3943 23.6715C73.7866 23.6715 75.774 25.2194 75.8844 28.4256H65.9473ZM82.8242 34.8382C82.8242 39.5186 85.8053 40.0714 87.8295 40.0714C88.4552 40.0714 89.0072 39.9977 89.0072 39.9977V36.8283C89.0072 36.8283 88.7128 36.8651 88.3816 36.8651C87.2775 36.8651 86.3941 36.4598 86.3941 34.2117V13.9053H82.8242V34.8382ZM90.6104 30.5632C90.6104 36.2386 95.1005 40.3662 100.658 40.3662C106.215 40.3662 110.705 36.2386 110.705 30.5632C110.705 24.9245 106.215 20.8338 100.658 20.8338C95.1005 20.8338 90.6104 24.9245 90.6104 30.5632ZM94.254 30.5632C94.254 26.6935 97.1615 23.9295 100.658 23.9295C104.191 23.9295 107.062 26.6935 107.062 30.5632C107.062 34.4697 104.191 37.2705 100.658 37.2705C97.1615 37.2705 94.254 34.4697 94.254 30.5632ZM114.215 39.924H117.785V31.1528H120.472L126.066 39.924H130.225L123.343 29.5681V29.4944L129.526 21.276H125.477L120.398 28.1308H117.785V13.9053H114.215V39.924ZM131.239 34.6908C131.239 38.413 134.368 40.3662 137.57 40.3662C142.023 40.3662 143.532 36.6809 143.532 36.6809H143.605C143.605 36.6809 143.532 37.3074 143.532 38.155V39.924H146.844V28.1308C146.844 23.4135 144.194 20.8338 139.483 20.8338C135.214 20.8338 132.527 23.045 132.527 23.045L134 25.6616C134 25.6616 136.318 23.8558 139.189 23.8558C141.544 23.8558 143.274 24.8877 143.274 27.9465V28.2782H142.465C139.336 28.2782 131.239 28.5362 131.239 34.6908ZM134.846 34.5065C134.846 31.1528 139.704 30.9685 142.391 30.9685H143.311V31.5582C143.311 34.3222 141.36 37.4917 138.342 37.4917C136.024 37.4917 134.846 36.0175 134.846 34.5065Z" fill="#434343"/>
</svg>
